<?xml version="1.0" standalone="no"?>
<!DOCTYPE svg PUBLIC "-//W3C//DTD SVG 1.1//EN" "http://www.w3.org/Graphics/SVG/1.1/DTD/svg11.dtd" >
<svg xmlns="http://www.w3.org/2000/svg" width="100%" height="100%">
<metadata>
Created by FontXChange 20110222 at Wed Nov 12 11:34:21 2014
 By Jason Rainbird
Copyright (c) 2002. Waitrose Limited. All rights reserved.
</metadata>
<defs>
<font id="Waitrose-Bold" horiz-adv-x="1026" >
  <font-face 
    font-family="Waitrose"
    font-weight="700"
    font-stretch="normal"
    units-per-em="1000"
    panose-1="2 0 8 3 0 0 0 0 0 0"
    ascent="732"
    descent="-268"
    x-height="458"
    cap-height="630"
    bbox="-155 -267 1051 888"
    underline-thickness="20"
    underline-position="-133"
    stemh="113.000"
    stemv="128.000"
    unicode-range="U+0001-20AC"
  />
    <missing-glyph />
    <glyph glyph-name="uni0000" 
 />
    <glyph glyph-name="uni0001" horiz-adv-x="574" 
d="M564 630l-60 -117h-159v-513h-135v513h-185v117h539z" />
    <glyph glyph-name="uni0002" horiz-adv-x="428" 
d="M412 0h-360v540l132 104v-527h228v-117z" />
    <glyph glyph-name="uni0003" horiz-adv-x="418" 
d="M408 0h-360v205l-45 -39v128l45 39v297h132v-181l66 58v-128l-66 -58v-204h228v-117z" />
    <glyph glyph-name="uni0004" horiz-adv-x="296" 
d="M271 433l-59 -52v-381h-128v268l-59 -52v124l59 52v238l128 101v-226l59 52v-124z" />
    <glyph glyph-name="uni0005" horiz-adv-x="490" 
d="M460 168c0 -113 -84 -177 -216 -177c-69 0 -143 20 -204 57v131c82 -54 148 -76 204 -76c66 0 83 30 83 65c0 24 -6 42 -51 68s-90 51 -136 76c-71 39 -99 93 -99 155c0 112 92 172 212 172c71 0 130 -20 190 -56v-130c-73 48 -133 73 -190 73c-52 0 -84 -20 -84 -59
c0 -16 4 -32 47 -55c45 -24 88 -48 131 -73c83 -48 113 -101 113 -171zM416 816l-107 -143h-128l-107 143h112l59 -66l59 66h112z" />
    <glyph glyph-name="uni0006" horiz-adv-x="404" 
d="M368 133c0 -104 -83 -142 -172 -142c-56 0 -115 15 -156 38v118c44 -26 106 -53 156 -53c23 0 43 8 43 31c0 14 -4 23 -43 43l-79 40c-54 27 -82 65 -82 120c0 102 89 139 177 139c53 0 96 -9 139 -29v-117c-32 20 -89 43 -139 43c-33 0 -50 -10 -50 -29
c0 -11 8 -24 25 -32l76 -38c68 -34 105 -67 105 -132zM377 662l-107 -143h-128l-107 143h112l59 -66l59 66h112z" />
    <glyph glyph-name="uni0007" horiz-adv-x="629" 
d="M614 630l-232 -403v-227h-135v227l-232 403h151l148 -275l148 275h152zM470 815l-140 -143h-112l107 143h145z" />
    <glyph glyph-name="uni0008" horiz-adv-x="554" 
d="M539 458l-321 -699h-141l126 274l-188 425h146l115 -279l122 279h141zM450 662l-140 -143h-112l107 143h145z" />
    <glyph glyph-name="uni0009" unicode="&#x9;" 
 />
    <glyph glyph-name="uni000A" unicode="&#xa;" 
 />
    <glyph glyph-name="uni000B" horiz-adv-x="231" 
d="M181 -1c0 -148 -48 -224 -232 -224v120c84 0 99 13 99 104v541l133 104v-645z" />
    <glyph glyph-name="uni000C" horiz-adv-x="588" 
d="M559 229c0 -138 -111 -238 -250 -238c-49 0 -100 22 -128 50v-202l-128 -106v897l128 101v-314c28 28 79 50 128 50c139 0 250 -100 250 -238zM428 229c0 82 -51 127 -119 127c-85 0 -128 -49 -128 -127s43 -127 128 -127c68 0 119 45 119 127z" />
    <glyph glyph-name="uni000D" unicode="&#xd;" 
 />
    <glyph glyph-name="uni000E" horiz-adv-x="575" 
d="M555 117l-60 -117h-475l308 513h-270v117h491l-308 -513h314zM441 814l-140 -143h-112l107 143h145z" />
    <glyph glyph-name="uni000F" horiz-adv-x="498" 
d="M473 113l-58 -113h-390l221 346h-203v112h420l-214 -345h224zM417 662l-140 -143h-112l107 143h145z" />
    <glyph glyph-name="uni0010" 
 />
    <glyph glyph-name="uni0011" 
 />
    <glyph glyph-name="uni0015" horiz-adv-x="710" 
d="M682 72l-42 -72h-248l156 182c26 30 31 44 31 66c0 19 -8 35 -44 35c-29 0 -58 -13 -86 -40l-50 48c47 44 91 61 136 61c72 0 126 -33 126 -104c0 -36 -14 -67 -55 -115l-52 -61h128zM567 630l-420 -630h-96l420 630h96zM183 288h-82v224l-53 -34v83l135 89v-362z" />
    <glyph glyph-name="uni0016" horiz-adv-x="634" 
d="M603 141l-37 -65h-17v-76h-82v76h-162v19l228 272h16v-226h54zM565 630l-419 -630h-96l419 630h96zM182 288h-82v224l-53 -34v83l135 89v-362zM470 141v61l-48 -61h48z" />
    <glyph glyph-name="uni0017" horiz-adv-x="237" 
d="M182 288h-82v224l-53 -34v83l135 89v-362z" />
    <glyph glyph-name="uni0018" horiz-adv-x="710" 
d="M679 141l-37 -65h-17v-76h-82v76h-162v19l228 272h16v-226h54zM642 630l-420 -630h-96l420 630h96zM289 400c0 -73 -57 -112 -130 -112c-45 0 -87 12 -133 60l47 46c28 -28 61 -40 86 -40c36 0 50 22 50 46c0 27 -16 41 -49 41h-53v62h53c35 0 48 22 48 38
c0 19 -13 37 -49 37c-25 0 -58 -12 -86 -40l-46 46c46 48 87 60 132 60c68 0 127 -31 127 -103c0 -29 -14 -56 -39 -71c25 -14 42 -37 42 -70zM546 141v61l-48 -61h48z" />
    <glyph glyph-name="uni0019" horiz-adv-x="324" 
d="M289 400c0 -73 -57 -112 -130 -112c-45 0 -87 12 -133 60l47 46c28 -28 61 -40 86 -40c36 0 50 22 50 46c0 27 -16 41 -49 41h-53v62h53c35 0 48 22 48 38c0 19 -13 37 -49 37c-25 0 -58 -12 -86 -40l-46 46c46 48 87 60 132 60c68 0 127 -31 127 -103
c0 -29 -14 -56 -39 -71c25 -14 42 -37 42 -70z" />
    <glyph glyph-name="uni001A" horiz-adv-x="360" 
d="M325 359l-42 -72h-248l156 182c26 30 31 44 31 66c0 19 -8 35 -44 35c-29 0 -58 -13 -86 -40l-50 48c47 44 91 61 136 61c72 0 126 -33 126 -104c0 -36 -14 -67 -55 -115l-52 -61h128z" />
    <glyph glyph-name="uni001B" horiz-adv-x="246" 
d="M191 355h-136v370h136v-370zM191 -140h-136v369h136v-369z" />
    <glyph glyph-name="uni001C" horiz-adv-x="513" 
d="M482 259h-451v107h451v-107z" />
    <glyph glyph-name="uni001D" horiz-adv-x="513" 
d="M454 193l-76 -76l-121 122l-122 -122l-76 75l122 123l-121 121l75 76l122 -122l121 121l75 -76l-120 -120z" />
    <glyph glyph-name="uni001E" 
 />
    <glyph glyph-name="uni001F" 
 />
    <glyph glyph-name="space" unicode=" " horiz-adv-x="185" 
 />
    <glyph glyph-name="exclam" unicode="!" horiz-adv-x="216" 
d="M174 708l-14 -510h-104l-14 510h132zM185 68c0 -43 -34 -77 -77 -77s-77 34 -77 77s34 77 77 77s77 -34 77 -77z" />
    <glyph glyph-name="quotedbl" unicode="&#x22;" horiz-adv-x="382" 
d="M334 722l-40 -183h-84l20 183h104zM172 722l-40 -183h-84l20 183h104z" />
    <glyph glyph-name="numbersign" unicode="#" horiz-adv-x="518" 
d="M493 447l-11 -82h-83l-15 -102h83l-12 -82h-83l-26 -181h-86l26 181h-99l-26 -181h-86l26 181h-76l12 82h76l15 102h-76l11 82h76l27 183h86l-27 -183h99l27 183h86l-27 -183h83zM313 365h-99l-15 -102h99z" />
    <glyph glyph-name="dollar" unicode="$" horiz-adv-x="500" 
d="M460 168c0 -95 -59 -155 -155 -172v-76h-105v74c-55 7 -112 25 -160 54v131c82 -54 148 -76 204 -76c66 0 83 30 83 65c0 24 -6 42 -51 68s-90 51 -136 76c-71 39 -99 93 -99 155c0 95 66 153 159 168v76h105v-76c49 -7 93 -25 138 -52v-130c-73 48 -133 73 -190 73
c-52 0 -84 -20 -84 -59c0 -16 4 -32 47 -55c45 -24 88 -48 131 -73c83 -48 113 -101 113 -171z" />
    <glyph glyph-name="percent" unicode="%" horiz-adv-x="770" 
d="M726 169c0 -79 -31 -178 -141 -178s-140 99 -140 178s30 178 140 178s141 -99 141 -178zM643 630l-420 -630h-96l420 630h96zM326 461c0 -79 -31 -178 -141 -178s-140 99 -140 178s30 178 140 178s141 -99 141 -178zM645 169c0 72 -24 107 -60 107s-59 -35 -59 -107
s23 -107 59 -107s60 35 60 107zM245 461c0 72 -24 107 -60 107s-59 -35 -59 -107s23 -107 59 -107s60 35 60 107z" />
    <glyph glyph-name="ampersand" unicode="&#x26;" horiz-adv-x="618" 
d="M602 0h-147l-44 49c-45 -35 -100 -58 -169 -58c-151 0 -212 85 -212 175c0 78 56 132 115 166l7 4l-11 12c-35 39 -63 76 -63 133c0 106 96 158 186 158c89 0 186 -51 186 -158c0 -90 -57 -125 -125 -164l-7 -4l95 -105c20 30 37 65 52 103l76 -80
c-14 -34 -33 -69 -56 -102zM334 481c0 40 -37 63 -70 63c-35 0 -70 -25 -70 -63c0 -34 15 -48 40 -75l12 -13l48 29c28 17 40 35 40 59zM339 129l-115 127l-6 -4c-33 -22 -60 -44 -60 -86c0 -39 31 -70 84 -70c35 0 67 12 97 33z" />
    <glyph glyph-name="quotesingle" unicode="'" horiz-adv-x="220" 
d="M172 722l-40 -183h-84l20 183h104z" />
    <glyph glyph-name="parenleft" unicode="(" horiz-adv-x="368" 
d="M339 -260h-133c-105 87 -156 279 -156 470s51 383 156 470h133c-103 -100 -155 -285 -155 -470s52 -370 155 -470z" />
    <glyph glyph-name="parenright" unicode=")" horiz-adv-x="368" 
d="M318 210c0 -191 -51 -383 -156 -470h-133c103 100 155 285 155 470s-52 370 -155 470h133c105 -87 156 -279 156 -470z" />
    <glyph glyph-name="asterisk" unicode="*" horiz-adv-x="347" 
d="M318 496l-102 -21l69 -74l-62 -46l-51 91l-50 -89l-62 45l70 77l-101 19l24 73l95 -44l-12 103h77l-12 -104l93 44z" />
    <glyph glyph-name="plus" unicode="+" horiz-adv-x="513" 
d="M482 260h-172v-172h-107v172h-172v108h172v170h107v-171h172v-107z" />
    <glyph glyph-name="comma" unicode="," horiz-adv-x="208" 
d="M181 67c0 -72 -25 -117 -74 -179h-72c40 54 51 82 54 105c-35 7 -62 38 -62 75c0 43 34 77 77 77s77 -34 77 -78z" />
    <glyph glyph-name="hyphen" unicode="-" horiz-adv-x="281" 
d="M238 201h-195v101h195v-101z" />
    <glyph glyph-name="period" unicode="." horiz-adv-x="214" 
d="M184 68c0 -43 -34 -77 -77 -77s-77 34 -77 77s34 77 77 77s77 -34 77 -77z" />
    <glyph glyph-name="slash" unicode="/" horiz-adv-x="469" 
d="M459 630l-328 -639h-121l328 639h121z" />
    <glyph glyph-name="zero" unicode="0" horiz-adv-x="600" 
d="M547 315c0 -148 -48 -324 -247 -324s-247 176 -247 324s48 324 247 324s247 -176 247 -324zM412 315c0 133 -34 209 -112 209s-112 -76 -112 -209s34 -209 112 -209s112 76 112 209z" />
    <glyph glyph-name="one" unicode="1" horiz-adv-x="353" 
d="M268 0h-136v430l-97 -64v132l233 153v-651z" />
    <glyph glyph-name="two" unicode="2" horiz-adv-x="554" 
d="M534 114l-67 -114h-433l271 328c44 53 64 79 64 128c0 41 -25 73 -96 73c-50 0 -100 -12 -158 -69l-80 76c86 81 158 103 238 103c131 0 230 -59 230 -183c0 -63 -25 -116 -99 -206l-113 -136h243z" />
    <glyph glyph-name="three" unicode="3" horiz-adv-x="544" 
d="M504 191c0 -130 -102 -200 -236 -200c-92 0 -158 22 -238 103l82 81c49 -47 106 -71 156 -71c73 0 102 36 102 87c0 57 -34 85 -101 85h-101v103h101c71 0 95 41 95 77c0 42 -25 70 -96 70c-50 0 -107 -24 -156 -71l-82 81c80 81 146 103 238 103c126 0 230 -56 230 -183
c0 -58 -30 -110 -85 -133c53 -24 91 -67 91 -132z" />
    <glyph glyph-name="four" unicode="4" horiz-adv-x="559" 
d="M548 249l-64 -109h-35v-140h-137v140h-287v100l336 390h88v-381h99zM319 249v164l-142 -164h142z" />
    <glyph glyph-name="five" unicode="5" horiz-adv-x="564" 
d="M523 630l-66 -114h-232l-15 -104h16c133 0 289 -29 289 -207c0 -129 -99 -214 -235 -214c-80 0 -150 17 -240 101l83 86c63 -61 107 -74 157 -74c72 0 103 37 103 101c0 79 -74 96 -171 96h-142l45 329h408z" />
    <glyph glyph-name="six" unicode="6" horiz-adv-x="557" 
d="M512 216c0 -118 -82 -225 -235 -225c-138 0 -232 87 -232 250v68c0 139 19 330 232 330c80 0 142 -9 228 -90l-80 -76c-48 46 -89 56 -148 56c-78 0 -97 -56 -100 -127c22 17 69 29 100 29c153 0 235 -86 235 -215zM379 216c0 67 -24 108 -102 108
c-72 0 -102 -35 -102 -108s35 -115 102 -115c73 0 102 48 102 115z" />
    <glyph glyph-name="seven" unicode="7" horiz-adv-x="560" 
d="M545 630l-338 -630h-150l276 516h-307l67 114h452z" />
    <glyph glyph-name="eight" unicode="8" horiz-adv-x="576" 
d="M523 189c0 -127 -100 -198 -235 -198s-235 71 -235 198c0 70 44 123 90 146c-52 24 -84 69 -84 130c0 120 98 174 229 174s229 -54 229 -174c0 -61 -32 -106 -84 -130c46 -23 90 -76 90 -146zM389 465c0 48 -34 74 -101 74s-101 -26 -101 -74c0 -51 32 -80 101 -80
s101 29 101 80zM394 189c0 63 -35 98 -106 98s-106 -35 -106 -98c0 -57 31 -96 106 -96s106 39 106 96z" />
    <glyph glyph-name="nine" unicode="9" horiz-adv-x="557" 
d="M512 321c0 -139 -19 -330 -232 -330c-80 0 -142 9 -228 90l80 76c48 -46 89 -56 148 -56c78 0 97 56 100 127c-22 -17 -69 -29 -100 -29c-153 0 -235 86 -235 215c0 118 82 225 235 225c138 0 232 -87 232 -250v-68zM382 414c0 73 -35 115 -102 115
c-73 0 -102 -48 -102 -115s24 -108 102 -108c72 0 102 35 102 108z" />
    <glyph glyph-name="colon" unicode=":" horiz-adv-x="214" 
d="M184 390c0 -43 -34 -77 -77 -77s-77 34 -77 77s34 77 77 77s77 -34 77 -77zM184 68c0 -43 -34 -77 -77 -77s-77 34 -77 77s34 77 77 77s77 -34 77 -77z" />
    <glyph glyph-name="semicolon" unicode=";" horiz-adv-x="208" 
d="M181 390c0 -43 -34 -77 -77 -77s-77 34 -77 77s34 77 77 77s77 -34 77 -77zM181 67c0 -72 -25 -117 -74 -179h-72c40 54 51 82 54 105c-35 7 -62 38 -62 75c0 43 34 77 77 77s77 -34 77 -78z" />
    <glyph glyph-name="less" unicode="&#x3c;" horiz-adv-x="435" 
d="M395 85h-149l-216 230l216 230h149l-216 -230z" />
    <glyph glyph-name="equal" unicode="=" horiz-adv-x="512" 
d="M464 364h-416v107h416v-107zM464 159h-416v107h416v-107z" />
    <glyph glyph-name="greater" unicode="&#x3e;" horiz-adv-x="435" 
d="M405 315l-216 -230h-149l216 230l-216 230h149z" />
    <glyph glyph-name="question" unicode="?" horiz-adv-x="453" 
d="M428 539c0 -77 -38 -134 -121 -205c-62 -53 -72 -71 -72 -121v-35h-120v35c0 103 33 144 109 211c52 46 74 73 74 115c0 48 -32 66 -87 66c-43 0 -89 -10 -141 -42l-54 96c69 41 124 59 195 59c115 0 217 -55 217 -179zM252 68c0 -43 -34 -77 -77 -77s-77 34 -77 77
s34 77 77 77s77 -34 77 -77z" />
    <glyph glyph-name="at" unicode="@" horiz-adv-x="825" 
d="M789 276c0 -143 -90 -243 -209 -243h-115l8 50c-28 -37 -77 -56 -121 -56c-106 0 -178 69 -178 180c0 112 79 226 222 226c57 0 100 -23 120 -50l6 39h113l-46 -315c70 0 122 62 122 169c0 145 -116 252 -289 252c-139 0 -308 -86 -308 -321c0 -162 131 -283 308 -283
c60 0 118 15 159 40l36 -50c-60 -37 -139 -55 -195 -55c-231 0 -386 149 -386 348c0 263 182 389 386 389c208 0 367 -134 367 -320zM496 263c0 41 -35 73 -92 73c-78 0 -113 -62 -113 -121c0 -48 24 -91 89 -91c56 0 116 34 116 139z" />
    <glyph glyph-name="A" unicode="A" horiz-adv-x="626" 
d="M616 0h-147l-45 104h-222l-45 -104h-147l303 648zM378 210l-65 150l-65 -150h130z" />
    <glyph glyph-name="B" unicode="B" horiz-adv-x="556" 
d="M527 196c0 -102 -82 -196 -243 -196h-231v630h226c153 0 222 -82 222 -168c0 -53 -24 -97 -68 -123c61 -28 94 -85 94 -143zM366 456c0 32 -26 70 -87 70h-92v-142h97c44 0 82 26 82 72zM391 196c0 46 -30 84 -107 84h-97v-176h97c80 0 107 41 107 92z" />
    <glyph glyph-name="C" unicode="C" horiz-adv-x="617" 
d="M592 98c-73 -74 -153 -107 -246 -107c-185 0 -317 147 -317 324s132 324 317 324c93 0 173 -33 246 -107l-90 -91c-53 55 -100 76 -156 76c-108 0 -178 -89 -178 -202s70 -202 178 -202c56 0 103 21 156 76z" />
    <glyph glyph-name="D" unicode="D" horiz-adv-x="614" 
d="M585 315c0 -193 -141 -315 -312 -315h-220v630h220c171 0 312 -122 312 -315zM447 315c0 118 -68 198 -174 198h-85v-396h85c106 0 174 80 174 198z" />
    <glyph glyph-name="E" unicode="E" horiz-adv-x="480" 
d="M450 630l-59 -115h-204v-118h224v-114h-224v-168h257v-115h-391v630h397z" />
    <glyph glyph-name="F" unicode="F" horiz-adv-x="473" 
d="M450 630l-59 -115h-204v-118h224v-114h-224v-283h-134v630h397z" />
    <glyph glyph-name="G" unicode="G" horiz-adv-x="644" 
d="M594 527l-98 -89c-48 53 -94 80 -150 80c-110 0 -180 -90 -180 -203s70 -203 180 -203c42 0 77 10 105 29v183h135v-239c-61 -55 -130 -94 -240 -94c-186 0 -320 146 -320 324s134 324 320 324c94 0 175 -38 248 -112z" />
    <glyph glyph-name="H" unicode="H" horiz-adv-x="629" 
d="M577 0h-135v279h-254v-279h-136v630h136v-235h254v235h135v-630z" />
    <glyph glyph-name="I" unicode="I" horiz-adv-x="244" 
d="M190 0h-136v630h136v-630z" />
    <glyph glyph-name="J" unicode="J" horiz-adv-x="241" 
d="M188 -1c0 -148 -50 -224 -234 -224v120c84 0 98 13 98 104v631h136v-631z" />
    <glyph glyph-name="K" unicode="K" horiz-adv-x="608" 
d="M592 0h-166l-201 260l-37 -38v-222h-136v630h136v-230l211 230h168l-254 -273z" />
    <glyph glyph-name="L" unicode="L" horiz-adv-x="428" 
d="M412 0h-360v630h136v-513h224v-117z" />
    <glyph glyph-name="M" unicode="M" horiz-adv-x="771" 
d="M721 0h-135l-23 301l-178 -226l-178 226l-23 -301h-135l48 648l288 -380l288 380z" />
    <glyph glyph-name="N" unicode="N" horiz-adv-x="626" 
d="M573 -9l-386 354v-345h-134v648l386 -355v337h134v-639z" />
    <glyph glyph-name="O" unicode="O" horiz-adv-x="707" 
d="M678 315c0 -178 -138 -324 -324 -324s-325 146 -325 324s139 324 325 324s324 -146 324 -324zM538 315c0 113 -73 203 -184 203s-185 -90 -185 -203s74 -203 185 -203s184 90 184 203z" />
    <glyph glyph-name="P" unicode="P" horiz-adv-x="541" 
d="M512 429c0 -116 -84 -203 -224 -203h-101v-226h-134v630h235c134 0 224 -85 224 -201zM376 429c0 68 -44 97 -88 97h-101v-196h101c43 0 88 33 88 99z" />
    <glyph glyph-name="Q" unicode="Q" horiz-adv-x="707" 
d="M710 0h-159l-33 33c-47 -27 -103 -42 -164 -42c-186 0 -325 146 -325 324s139 324 325 324s324 -146 324 -324c0 -79 -27 -152 -74 -209zM538 315c0 113 -73 203 -184 203s-185 -90 -185 -203s74 -203 185 -203c26 0 50 5 71 14l-146 146h159l71 -71c19 32 29 72 29 114z
" />
    <glyph glyph-name="R" unicode="R" horiz-adv-x="569" 
d="M566 0h-162l-189 234h-28v-234h-135v630h239c118 0 229 -63 229 -195c0 -99 -64 -164 -153 -189zM383 435c0 55 -36 88 -92 88h-104v-182h104c58 0 92 36 92 94z" />
    <glyph glyph-name="S" unicode="S" horiz-adv-x="500" 
d="M460 168c0 -113 -84 -177 -216 -177c-69 0 -143 20 -204 57v131c82 -54 148 -76 204 -76c66 0 83 30 83 65c0 24 -6 42 -51 68s-90 51 -136 76c-71 39 -99 93 -99 155c0 112 92 172 212 172c71 0 130 -20 190 -56v-130c-73 48 -133 73 -190 73c-52 0 -84 -20 -84 -59
c0 -16 4 -32 47 -55c45 -24 88 -48 131 -73c83 -48 113 -101 113 -171z" />
    <glyph glyph-name="T" unicode="T" horiz-adv-x="554" 
d="M529 513h-184v-513h-135v513h-185v117h504v-117z" />
    <glyph glyph-name="U" unicode="U" horiz-adv-x="634" 
d="M595 291c0 -186 -104 -300 -278 -300s-278 114 -278 300v339h136v-339c0 -123 49 -184 142 -184s142 61 142 184v339h136v-339z" />
    <glyph glyph-name="V" unicode="V" horiz-adv-x="636" 
d="M621 630l-303 -648l-303 648h147l156 -360l156 360h147z" />
    <glyph glyph-name="W" unicode="W" horiz-adv-x="942" 
d="M927 630l-287 -645l-169 369l-169 -369l-287 645h149l140 -345l167 363l167 -363l140 345h149z" />
    <glyph glyph-name="X" unicode="X" horiz-adv-x="613" 
d="M598 0h-161l-131 210l-129 -210h-162l213 315l-213 315h162l129 -210l131 210h161l-212 -315z" />
    <glyph glyph-name="Y" unicode="Y" horiz-adv-x="629" 
d="M614 630l-232 -403v-227h-135v227l-232 403h151l148 -275l148 275h152z" />
    <glyph glyph-name="Z" unicode="Z" horiz-adv-x="580" 
d="M555 117l-60 -117h-475l308 513h-270v117h491l-308 -513h314z" />
    <glyph glyph-name="bracketleft" unicode="[" horiz-adv-x="334" 
d="M319 -261h-266v941h266v-87l-133 -8v-753l133 -8v-85z" />
    <glyph glyph-name="backslash" unicode="\" horiz-adv-x="469" 
d="M459 -9h-121l-328 639h121z" />
    <glyph glyph-name="bracketright" unicode="]" horiz-adv-x="334" 
d="M281 -261h-266v85l133 8v753l-133 8v87h266v-941z" />
    <glyph glyph-name="asciicircum" unicode="^" horiz-adv-x="491" 
d="M438 459h-91l-101 101l-102 -101h-91l136 171h112z" />
    <glyph glyph-name="underscore" unicode="_" horiz-adv-x="513" 
d="M509 -144h-505v100h505v-100z" />
    <glyph glyph-name="grave" unicode="`" horiz-adv-x="426" 
d="M324 519h-112l-140 143h145z" />
    <glyph glyph-name="a" unicode="a" horiz-adv-x="588" 
d="M535 0h-128v38c-28 -28 -79 -47 -128 -47c-139 0 -250 100 -250 238s111 238 250 238c49 0 100 -19 128 -47v38h128v-458zM407 229c0 78 -43 126 -128 126c-68 0 -119 -44 -119 -126s51 -126 119 -126c85 0 128 48 128 126z" />
    <glyph glyph-name="b" unicode="b" horiz-adv-x="588" 
d="M559 229c0 -138 -111 -238 -250 -238c-49 0 -100 22 -128 50v-41h-128v630l128 101v-314c28 28 79 50 128 50c139 0 250 -100 250 -238zM428 229c0 82 -51 127 -119 127c-85 0 -128 -49 -128 -127s43 -127 128 -127c68 0 119 45 119 127z" />
    <glyph glyph-name="c" unicode="c" horiz-adv-x="486" 
d="M466 65c-48 -49 -115 -74 -185 -74c-135 0 -252 95 -252 238c0 157 118 238 252 238c70 0 137 -24 185 -73l-83 -77c-30 23 -61 39 -102 39c-72 0 -121 -52 -121 -127c0 -73 49 -126 121 -126c41 0 72 15 102 38z" />
    <glyph glyph-name="d" unicode="d" horiz-adv-x="588" 
d="M535 0h-128v41c-28 -28 -79 -50 -128 -50c-139 0 -250 100 -250 238s111 238 250 238c49 0 100 -22 128 -50v213l128 101v-731zM407 229c0 78 -43 127 -128 127c-68 0 -119 -45 -119 -127s51 -127 119 -127c85 0 128 49 128 127z" />
    <glyph glyph-name="e" unicode="e" horiz-adv-x="514" 
d="M485 195h-320c9 -51 49 -94 112 -94c43 0 71 11 108 39l81 -75c-54 -54 -122 -74 -189 -74c-130 0 -248 83 -248 244c0 137 105 232 233 232c133 0 223 -88 223 -254v-18zM344 282c-3 47 -36 78 -82 78s-82 -28 -92 -78h174z" />
    <glyph glyph-name="f" unicode="f" horiz-adv-x="326" 
d="M384 665l-80 -82c-16 11 -28 13 -45 13c-32 0 -60 -21 -60 -65v-73h100v-104h-100v-354h-128v354h-58v104h58v73c0 131 88 174 182 174c48 0 95 -15 131 -40z" />
    <glyph glyph-name="g" unicode="g" horiz-adv-x="588" 
d="M535 -2c0 -120 -78 -239 -250 -239c-75 0 -159 10 -233 85l81 81c43 -44 95 -56 152 -56c96 0 122 68 122 129v41c-28 -28 -79 -48 -128 -48c-139 0 -250 100 -250 238s111 238 250 238c49 0 100 -19 128 -47v38h128v-460zM407 229c0 78 -43 126 -128 126
c-68 0 -119 -44 -119 -126s51 -126 119 -126c85 0 128 48 128 126z" />
    <glyph glyph-name="h" unicode="h" horiz-adv-x="542" 
d="M492 0h-128v292c0 46 -38 73 -88 73c-48 0 -95 -31 -95 -99v-266h-128v630l128 101v-311c33 36 78 47 120 47c94 0 191 -58 191 -175v-292z" />
    <glyph glyph-name="i" unicode="i" horiz-adv-x="230" 
d="M187 619c0 -39 -32 -71 -72 -71s-72 32 -72 71s32 72 72 72s72 -33 72 -72zM179 0h-128v458h128v-458z" />
    <glyph glyph-name="j" unicode="j" horiz-adv-x="231" 
d="M188 619c0 -39 -32 -71 -72 -71s-72 32 -72 71s32 72 72 72s72 -33 72 -72zM180 -17c0 -139 -34 -223 -206 -223v110c63 0 78 13 78 113v475h128v-475z" />
    <glyph glyph-name="k" unicode="k" horiz-adv-x="527" 
d="M512 0h-171l-145 186l-15 -14v-172h-128v630l128 101v-405l144 132h181l-213 -189z" />
    <glyph glyph-name="l" unicode="l" horiz-adv-x="234" 
d="M181 0h-128v630l128 101v-731z" />
    <glyph glyph-name="m" unicode="m" horiz-adv-x="797" 
d="M748 0h-129v292c0 51 -21 73 -60 73c-52 0 -95 -33 -95 -93v-272h-129v292c0 51 -20 73 -58 73c-55 0 -96 -35 -96 -93v-272h-128v458h128v-39c23 25 60 48 111 48c61 0 112 -21 145 -72c38 50 87 72 135 72c77 0 176 -38 176 -174v-293z" />
    <glyph glyph-name="n" unicode="n" horiz-adv-x="541" 
d="M492 0h-128v292c0 46 -38 73 -88 73c-48 0 -95 -31 -95 -99v-266h-128v458h128v-38c33 36 78 47 120 47c94 0 191 -58 191 -175v-292z" />
    <glyph glyph-name="o" unicode="o" horiz-adv-x="562" 
d="M533 230c0 -137 -111 -239 -252 -239s-252 102 -252 239c0 138 111 237 252 237s252 -99 252 -237zM402 230c0 74 -44 124 -121 124s-121 -50 -121 -124s44 -126 121 -126s121 52 121 126z" />
    <glyph glyph-name="p" unicode="p" horiz-adv-x="588" 
d="M559 229c0 -138 -111 -238 -250 -238c-49 0 -100 22 -128 50v-202l-128 -106v725h128v-41c28 28 79 50 128 50c139 0 250 -100 250 -238zM428 229c0 82 -51 127 -119 127c-85 0 -128 -49 -128 -127s43 -127 128 -127c68 0 119 45 119 127z" />
    <glyph glyph-name="q" unicode="q" horiz-adv-x="588" 
d="M535 -161l-128 -106v308c-28 -28 -79 -50 -128 -50c-139 0 -250 100 -250 238s111 238 250 238c49 0 100 -22 128 -50v41h128v-619zM407 229c0 78 -43 127 -128 127c-68 0 -119 -45 -119 -127s51 -127 119 -127c85 0 128 49 128 127z" />
    <glyph glyph-name="r" unicode="r" horiz-adv-x="420" 
d="M410 429l-81 -85c-17 10 -37 15 -57 15c-49 0 -91 -30 -91 -92v-267h-128v458h128v-45c28 37 68 54 109 54c42 0 87 -8 120 -38z" />
    <glyph glyph-name="s" unicode="s" horiz-adv-x="403" 
d="M368 133c0 -104 -83 -142 -172 -142c-56 0 -115 15 -156 38v118c44 -26 106 -53 156 -53c23 0 43 8 43 31c0 14 -4 23 -43 43l-79 40c-54 27 -82 65 -82 120c0 102 89 139 177 139c53 0 96 -9 139 -29v-117c-32 20 -89 43 -139 43c-33 0 -50 -10 -50 -29
c0 -11 8 -24 25 -32l76 -38c68 -34 105 -67 105 -132z" />
    <glyph glyph-name="t" unicode="t" horiz-adv-x="373" 
d="M344 354h-102v-354h-128v354h-85v104h85v167l128 105v-272h102v-104z" />
    <glyph glyph-name="u" unicode="u" horiz-adv-x="542" 
d="M489 0h-128v38c-33 -36 -78 -47 -120 -47c-94 0 -191 58 -191 175v292h128v-292c0 -46 38 -73 88 -73c48 0 95 31 95 99v266h128v-458z" />
    <glyph glyph-name="v" unicode="v" horiz-adv-x="540" 
d="M525 458l-255 -474l-255 474h140l116 -231l114 231h140z" />
    <glyph glyph-name="w" unicode="w" horiz-adv-x="740" 
d="M725 458l-206 -473l-149 251l-149 -251l-206 473h147l78 -214l130 224l130 -224l78 214h147z" />
    <glyph glyph-name="x" unicode="x" horiz-adv-x="549" 
d="M534 0h-159l-100 151l-101 -151h-159l170 236l-158 222h156l90 -135l91 135h159l-159 -221z" />
    <glyph glyph-name="y" unicode="y" horiz-adv-x="554" 
d="M539 458l-321 -699h-141l126 274l-188 425h146l115 -279l122 279h141z" />
    <glyph glyph-name="z" unicode="z" horiz-adv-x="498" 
d="M473 113l-58 -113h-390l221 346h-203v112h420l-214 -345h224z" />
    <glyph glyph-name="braceleft" unicode="{" horiz-adv-x="346" 
d="M326 -261h-108c-89 0 -144 12 -144 111v267c0 27 -12 43 -49 62v61c37 19 49 35 49 62v267c0 99 55 111 144 111h108v-87h-89c-37 0 -44 -7 -44 -41v-250c0 -34 -16 -73 -69 -92c53 -19 69 -59 69 -93v-250c0 -34 7 -41 44 -41h89v-87z" />
    <glyph glyph-name="bar" unicode="|" horiz-adv-x="240" 
d="M188 -261h-136v941h136v-941z" />
    <glyph glyph-name="braceright" unicode="}" horiz-adv-x="346" 
d="M321 179c-37 -19 -49 -35 -49 -62v-267c0 -99 -55 -111 -144 -111h-108v87h89c37 0 44 7 44 41v250c0 34 16 74 69 93c-53 19 -69 58 -69 92v250c0 34 -7 41 -44 41h-89v87h108c89 0 144 -12 144 -111v-267c0 -27 12 -43 49 -62v-61z" />
    <glyph glyph-name="asciitilde" unicode="~" horiz-adv-x="545" 
d="M489 501l-71 -131c-17 -31 -39 -50 -82 -50c-40 0 -67 13 -89 49l-34 56c-4 7 -8 8 -13 1l-67 -100h-77l71 131c19 36 45 50 84 50c40 0 68 -17 87 -49l34 -56c4 -6 8 -9 13 -2l67 101h77z" />
    <glyph glyph-name="uni007F" horiz-adv-x="185" 
 />
    <glyph glyph-name="uni0080" horiz-adv-x="626" 
d="M616 0h-147l-45 104h-222l-45 -104h-147l303 648zM378 210l-65 150l-65 -150h130zM486 743c0 -39 -32 -71 -71 -71s-71 32 -71 71s32 71 71 71s71 -32 71 -71zM276 743c0 -39 -32 -71 -71 -71s-71 32 -71 71s32 71 71 71s71 -32 71 -71z" />
    <glyph glyph-name="uni0081" horiz-adv-x="626" 
d="M616 0h-147l-45 104h-222l-45 -104h-147l303 648zM378 210l-65 150l-65 -150h130zM431 779c0 -60 -49 -108 -109 -108s-108 48 -108 108s48 109 108 109s109 -49 109 -109zM365 780c0 23 -20 42 -43 42s-41 -19 -41 -42s18 -42 41 -42s43 19 43 42z" />
    <glyph glyph-name="uni0082" horiz-adv-x="617" 
d="M592 98c-68 -69 -142 -103 -228 -107l-10 -17c59 0 106 -31 106 -82c0 -68 -59 -92 -120 -92c-45 0 -90 12 -120 28l30 47c22 -11 59 -22 90 -22c26 0 45 11 45 39c0 17 -12 31 -45 31h-83l44 71c-160 22 -272 158 -272 321c0 177 132 324 317 324c93 0 173 -33 246 -107
l-90 -91c-53 55 -100 76 -156 76c-108 0 -178 -89 -178 -202s70 -202 178 -202c56 0 103 21 156 76z" />
    <glyph glyph-name="uni0083" horiz-adv-x="480" 
d="M450 630l-59 -115h-204v-118h224v-114h-224v-168h257v-115h-391v630h397zM404 815l-140 -143h-112l107 143h145z" />
    <glyph glyph-name="uni0084" horiz-adv-x="626" 
d="M573 -9l-386 354v-345h-134v648l386 -355v337h134v-639zM499 810l-53 -101c-15 -28 -34 -43 -57 -43c-13 0 -27 5 -42 14l-49 30c-10 6 -16 9 -20 9s-7 -3 -11 -8l-28 -38h-84l62 101c17 27 36 43 59 43c12 0 25 -4 40 -14l48 -31c9 -6 16 -9 20 -9c5 0 8 3 12 9l28 38
h75z" />
    <glyph glyph-name="uni0085" unicode="&#x85;" horiz-adv-x="707" 
d="M678 315c0 -178 -138 -324 -324 -324s-325 146 -325 324s139 324 325 324s324 -146 324 -324zM538 315c0 113 -73 203 -184 203s-185 -90 -185 -203s74 -203 185 -203s184 90 184 203zM525 743c0 -39 -32 -71 -71 -71s-71 32 -71 71s32 71 71 71s71 -32 71 -71zM315 743
c0 -39 -32 -71 -71 -71s-71 32 -71 71s32 71 71 71s71 -32 71 -71z" />
    <glyph glyph-name="uni0086" horiz-adv-x="634" 
d="M595 291c0 -186 -104 -300 -278 -300s-278 114 -278 300v339h136v-339c0 -123 49 -184 142 -184s142 61 142 184v339h136v-339zM500 743c0 -39 -32 -71 -71 -71s-71 32 -71 71s32 71 71 71s71 -32 71 -71zM290 743c0 -39 -32 -71 -71 -71s-71 32 -71 71s32 71 71 71
s71 -32 71 -71z" />
    <glyph glyph-name="uni0087" horiz-adv-x="588" 
d="M535 0h-128v38c-28 -28 -79 -47 -128 -47c-139 0 -250 100 -250 238s111 238 250 238c49 0 100 -19 128 -47v38h128v-458zM407 229c0 78 -43 126 -128 126c-68 0 -119 -44 -119 -126s51 -126 119 -126c85 0 128 48 128 126zM448 662l-140 -143h-112l107 143h145z" />
    <glyph glyph-name="uni0088" horiz-adv-x="588" 
d="M535 0h-128v38c-28 -28 -79 -47 -128 -47c-139 0 -250 100 -250 238s111 238 250 238c49 0 100 -19 128 -47v38h128v-458zM407 229c0 78 -43 126 -128 126c-68 0 -119 -44 -119 -126s51 -126 119 -126c85 0 128 48 128 126zM399 519h-112l-140 143h145z" />
    <glyph glyph-name="uni0089" horiz-adv-x="588" 
d="M535 0h-128v38c-28 -28 -79 -47 -128 -47c-139 0 -250 100 -250 238s111 238 250 238c49 0 100 -19 128 -47v38h128v-458zM407 229c0 78 -43 126 -128 126c-68 0 -119 -44 -119 -126s51 -126 119 -126c85 0 128 48 128 126zM465 519h-112l-59 66l-59 -66h-112l107 143
h128z" />
    <glyph glyph-name="uni008A" horiz-adv-x="588" 
d="M535 0h-128v38c-28 -28 -79 -47 -128 -47c-139 0 -250 100 -250 238s111 238 250 238c49 0 100 -19 128 -47v38h128v-458zM407 229c0 78 -43 126 -128 126c-68 0 -119 -44 -119 -126s51 -126 119 -126c85 0 128 48 128 126zM462 590c0 -39 -32 -71 -71 -71s-71 32 -71 71
s32 71 71 71s71 -32 71 -71zM252 590c0 -39 -32 -71 -71 -71s-71 32 -71 71s32 71 71 71s71 -32 71 -71z" />
    <glyph glyph-name="uni008B" horiz-adv-x="588" 
d="M535 0h-128v38c-28 -28 -79 -47 -128 -47c-139 0 -250 100 -250 238s111 238 250 238c49 0 100 -19 128 -47v38h128v-458zM407 229c0 78 -43 126 -128 126c-68 0 -119 -44 -119 -126s51 -126 119 -126c85 0 128 48 128 126zM465 663l-53 -101c-15 -28 -34 -43 -57 -43
c-13 0 -27 5 -42 14l-49 30c-10 6 -16 9 -20 9s-7 -3 -11 -8l-28 -38h-84l62 101c17 27 36 43 59 43c12 0 25 -4 40 -14l48 -31c9 -6 16 -9 20 -9c5 0 8 3 12 9l28 38h75z" />
    <glyph glyph-name="uni008C" horiz-adv-x="588" 
d="M535 0h-128v38c-28 -28 -79 -47 -128 -47c-139 0 -250 100 -250 238s111 238 250 238c49 0 100 -19 128 -47v38h128v-458zM407 229c0 78 -43 126 -128 126c-68 0 -119 -44 -119 -126s51 -126 119 -126c85 0 128 48 128 126zM394 616c0 -60 -49 -108 -109 -108
s-108 48 -108 108s48 109 108 109s109 -49 109 -109zM328 617c0 23 -20 42 -43 42s-41 -19 -41 -42s18 -42 41 -42s43 19 43 42z" />
    <glyph glyph-name="uni008D" horiz-adv-x="486" 
d="M466 65c-48 -49 -114 -74 -184 -74l-10 -17c59 0 106 -31 106 -82c0 -68 -59 -92 -120 -92c-45 0 -90 12 -120 28l30 47c22 -11 59 -22 90 -22c26 0 45 11 45 39c0 17 -12 31 -45 31h-83l46 74c-108 24 -192 111 -192 232c0 157 118 238 252 238c70 0 137 -24 185 -73
l-83 -77c-30 23 -61 39 -102 39c-72 0 -121 -52 -121 -127c0 -73 49 -126 121 -126c41 0 72 15 102 38z" />
    <glyph glyph-name="uni008E" horiz-adv-x="514" 
d="M485 195h-320c9 -51 49 -94 112 -94c43 0 71 11 108 39l81 -75c-54 -54 -122 -74 -189 -74c-130 0 -248 83 -248 244c0 137 105 232 233 232c133 0 223 -88 223 -254v-18zM344 282c-3 47 -36 78 -82 78s-82 -28 -92 -78h174zM410 662l-140 -143h-112l107 143h145z" />
    <glyph glyph-name="uni008F" horiz-adv-x="514" 
d="M485 195h-320c9 -51 49 -94 112 -94c43 0 71 11 108 39l81 -75c-54 -54 -122 -74 -189 -74c-130 0 -248 83 -248 244c0 137 105 232 233 232c133 0 223 -88 223 -254v-18zM344 282c-3 47 -36 78 -82 78s-82 -28 -92 -78h174zM374 519h-112l-140 143h145z" />
    <glyph glyph-name="uni0090" horiz-adv-x="514" 
d="M485 195h-320c9 -51 49 -94 112 -94c43 0 71 11 108 39l81 -75c-54 -54 -122 -74 -189 -74c-130 0 -248 83 -248 244c0 137 105 232 233 232c133 0 223 -88 223 -254v-18zM344 282c-3 47 -36 78 -82 78s-82 -28 -92 -78h174zM429 519h-112l-59 66l-59 -66h-112l107 143
h128z" />
    <glyph glyph-name="uni0091" horiz-adv-x="514" 
d="M485 195h-320c9 -51 49 -94 112 -94c43 0 71 11 108 39l81 -75c-54 -54 -122 -74 -189 -74c-130 0 -248 83 -248 244c0 137 105 232 233 232c133 0 223 -88 223 -254v-18zM344 282c-3 47 -36 78 -82 78s-82 -28 -92 -78h174zM434 590c0 -39 -32 -71 -71 -71
s-71 32 -71 71s32 71 71 71s71 -32 71 -71zM224 590c0 -39 -32 -71 -71 -71s-71 32 -71 71s32 71 71 71s71 -32 71 -71z" />
    <glyph glyph-name="uni0092" horiz-adv-x="230" 
d="M184 0h-128v458h128v-458zM270 662l-140 -143h-112l107 143h145z" />
    <glyph glyph-name="uni0093" horiz-adv-x="230" 
d="M184 0h-128v458h128v-458zM212 519h-112l-140 143h145z" />
    <glyph glyph-name="uni0094" horiz-adv-x="230" 
d="M184 0h-128v458h128v-458zM286 519h-112l-59 66l-59 -66h-112l107 143h128z" />
    <glyph glyph-name="uni0095" horiz-adv-x="230" 
d="M184 0h-128v458h128v-458zM291 590c0 -39 -32 -71 -71 -71s-71 32 -71 71s32 71 71 71s71 -32 71 -71zM81 590c0 -39 -32 -71 -71 -71s-71 32 -71 71s32 71 71 71s71 -32 71 -71z" />
    <glyph glyph-name="uni0096" horiz-adv-x="541" 
d="M492 0h-128v292c0 46 -38 73 -88 73c-48 0 -95 -31 -95 -99v-266h-128v458h128v-38c33 36 78 47 120 47c94 0 191 -58 191 -175v-292zM452 663l-53 -101c-15 -28 -34 -43 -57 -43c-13 0 -27 5 -42 14l-49 30c-10 6 -16 9 -20 9s-7 -3 -11 -8l-28 -38h-84l62 101
c17 27 36 43 59 43c12 0 25 -4 40 -14l48 -31c9 -6 16 -9 20 -9c5 0 8 3 12 9l28 38h75z" />
    <glyph glyph-name="uni0097" horiz-adv-x="562" 
d="M533 230c0 -137 -111 -239 -252 -239s-252 102 -252 239c0 138 111 237 252 237s252 -99 252 -237zM402 230c0 74 -44 124 -121 124s-121 -50 -121 -124s44 -126 121 -126s121 52 121 126zM422 662l-140 -143h-112l107 143h145z" />
    <glyph glyph-name="uni0098" horiz-adv-x="562" 
d="M533 230c0 -137 -111 -239 -252 -239s-252 102 -252 239c0 138 111 237 252 237s252 -99 252 -237zM402 230c0 74 -44 124 -121 124s-121 -50 -121 -124s44 -126 121 -126s121 52 121 126zM399 519h-112l-140 143h145z" />
    <glyph glyph-name="uni0099" horiz-adv-x="562" 
d="M533 230c0 -137 -111 -239 -252 -239s-252 102 -252 239c0 138 111 237 252 237s252 -99 252 -237zM402 230c0 74 -44 124 -121 124s-121 -50 -121 -124s44 -126 121 -126s121 52 121 126zM452 519h-112l-59 66l-59 -66h-112l107 143h128z" />
    <glyph glyph-name="uni009A" horiz-adv-x="562" 
d="M533 230c0 -137 -111 -239 -252 -239s-252 102 -252 239c0 138 111 237 252 237s252 -99 252 -237zM402 230c0 74 -44 124 -121 124s-121 -50 -121 -124s44 -126 121 -126s121 52 121 126zM455 593c0 -39 -32 -71 -71 -71s-71 32 -71 71s32 71 71 71s71 -32 71 -71z
M245 593c0 -39 -32 -71 -71 -71s-71 32 -71 71s32 71 71 71s71 -32 71 -71z" />
    <glyph glyph-name="uni009B" horiz-adv-x="562" 
d="M533 230c0 -137 -111 -239 -252 -239s-252 102 -252 239c0 138 111 237 252 237s252 -99 252 -237zM402 230c0 74 -44 124 -121 124s-121 -50 -121 -124s44 -126 121 -126s121 52 121 126zM454 656l-53 -101c-15 -28 -34 -43 -57 -43c-13 0 -27 5 -42 14l-49 30
c-10 6 -16 9 -20 9s-7 -3 -11 -8l-28 -38h-84l62 101c17 27 36 43 59 43c12 0 25 -4 40 -14l48 -31c9 -6 16 -9 20 -9c5 0 8 3 12 9l28 38h75z" />
    <glyph glyph-name="uni009C" horiz-adv-x="547" 
d="M494 0h-128v38c-33 -36 -78 -47 -120 -47c-94 0 -191 58 -191 175v292h128v-292c0 -46 38 -73 88 -73c48 0 95 31 95 99v266h128v-458zM418 662l-140 -143h-112l107 143h145z" />
    <glyph glyph-name="uni009D" horiz-adv-x="547" 
d="M494 0h-128v38c-33 -36 -78 -47 -120 -47c-94 0 -191 58 -191 175v292h128v-292c0 -46 38 -73 88 -73c48 0 95 31 95 99v266h128v-458zM388 519h-112l-140 143h145z" />
    <glyph glyph-name="uni009E" horiz-adv-x="547" 
d="M494 0h-128v38c-33 -36 -78 -47 -120 -47c-94 0 -191 58 -191 175v292h128v-292c0 -46 38 -73 88 -73c48 0 95 31 95 99v266h128v-458zM439 519h-112l-59 66l-59 -66h-112l107 143h128z" />
    <glyph glyph-name="uni009F" horiz-adv-x="547" 
d="M494 0h-128v38c-33 -36 -78 -47 -120 -47c-94 0 -191 58 -191 175v292h128v-292c0 -46 38 -73 88 -73c48 0 95 31 95 99v266h128v-458zM448 590c0 -39 -32 -71 -71 -71s-71 32 -71 71s32 71 71 71s71 -32 71 -71zM238 590c0 -39 -32 -71 -71 -71s-71 32 -71 71
s32 71 71 71s71 -32 71 -71z" />
    <glyph glyph-name="uni00A0" unicode="&#xa0;" horiz-adv-x="304" 
d="M283 384h-83v-394l-96 71v323h-83v83h83v163h96v-163h83v-83z" />
    <glyph glyph-name="exclamdown" unicode="&#xa1;" horiz-adv-x="269" 
d="M233 545c0 -55 -44 -99 -99 -99s-99 44 -99 99s44 99 99 99s99 -44 99 -99zM176 544c0 23 -18 41 -41 41s-41 -18 -41 -41s18 -41 41 -41s41 18 41 41z" />
    <glyph glyph-name="cent" unicode="&#xa2;" horiz-adv-x="486" 
d="M466 65c-39 -39 -89 -63 -144 -71v-70h-111v76c-103 27 -182 111 -182 229c0 129 79 206 182 230v73h111v-68c55 -8 105 -31 144 -70l-83 -77c-30 23 -61 39 -102 39c-72 0 -121 -52 -121 -127c0 -73 49 -126 121 -126c41 0 72 15 102 38z" />
    <glyph glyph-name="sterling" unicode="&#xa3;" horiz-adv-x="526" 
d="M496 564l-80 -79c-40 35 -75 44 -117 44c-46 0 -70 -20 -70 -76v-78h204l-43 -118h-161v-103c0 -10 -3 -29 -10 -39h264v-115h-430c34 46 43 106 43 154v103h-74l43 118h31v78c0 134 93 186 203 186c80 0 130 -18 197 -75z" />
    <glyph glyph-name="Euro" unicode="&#x20ac;" horiz-adv-x="490" 
d="M455 -74c0 -113 -84 -177 -216 -177c-69 0 -143 20 -204 57v131c82 -54 148 -76 204 -76c66 0 83 30 83 65c0 24 -6 42 -51 68s-90 51 -136 76c-71 39 -99 93 -99 155c0 55 19 94 53 120c-37 34 -53 76 -53 122c0 115 92 172 212 172c71 0 130 -20 190 -56v-130
c-73 48 -133 73 -190 73c-52 0 -84 -20 -84 -59c0 -16 4 -32 47 -55c45 -24 88 -48 131 -73c83 -48 113 -101 113 -171c0 -51 -17 -91 -47 -121c34 -35 47 -74 47 -121zM340 149c0 33 -16 57 -69 87c-35 20 -70 40 -106 60c-11 -12 -17 -28 -17 -48c0 -36 20 -55 63 -78
c39 -21 78 -42 116 -64c9 13 13 29 13 43z" />
    <glyph glyph-name="yen" unicode="&#xa5;" horiz-adv-x="355" 
d="M303 302c0 -69 -58 -125 -127 -125s-126 56 -126 125s57 126 126 126s127 -57 127 -126z" />
    <glyph glyph-name="Scaron" unicode="&#x160;" horiz-adv-x="503" 
d="M446 0h-70v567h-50v-567h-70v262h-10c-123 0 -211 61 -211 184s88 184 211 184h200v-630z" />
    <glyph glyph-name="section" unicode="&#xa7;" horiz-adv-x="571" 
d="M547 192c0 -104 -67 -201 -242 -201h-72v103h72c90 0 111 47 111 98c0 47 -26 103 -118 103h-65v103h62c66 0 85 38 85 95c0 45 -25 81 -98 81c-61 0 -106 -32 -106 -100v-474h-128v474c0 148 124 203 234 203c144 0 229 -70 229 -184c0 -62 -34 -123 -87 -144
c79 -21 123 -83 123 -157z" />
    <glyph glyph-name="scaron" unicode="&#x161;" horiz-adv-x="724" 
d="M686 315c0 -179 -147 -324 -326 -324s-322 145 -322 324s143 324 322 324s326 -145 326 -324zM608 315c0 136 -112 246 -248 246s-244 -110 -244 -246s108 -246 244 -246s248 110 248 246zM508 136h-91l-95 131h-18v-131h-73v360h127c64 0 126 -33 126 -115
c0 -58 -37 -91 -81 -105zM406 381c0 36 -23 51 -48 51h-54v-101h54c27 0 48 17 48 50z" />
    <glyph glyph-name="copyright" unicode="&#xa9;" horiz-adv-x="724" 
d="M686 315c0 -179 -147 -324 -326 -324s-322 145 -322 324s143 324 322 324s326 -145 326 -324zM608 315c0 136 -112 246 -248 246s-244 -110 -244 -246s108 -246 244 -246s248 110 248 246zM510 193c-46 -50 -98 -65 -146 -65c-108 0 -183 83 -183 187s75 187 183 187
c48 0 100 -15 146 -65l-54 -54c-36 37 -65 43 -92 43c-58 0 -97 -44 -97 -111s39 -111 97 -111c27 0 56 6 92 43z" />
    <glyph glyph-name="ordfeminine" unicode="&#xaa;" horiz-adv-x="663" 
d="M630 308h-80l-8 137l-80 -89l-80 89l-7 -137h-81l25 331l143 -170l143 170zM285 558h-88v-250h-81v250h-88v72h257v-72z" />
    <glyph glyph-name="guillemotleft" unicode="&#xab;" horiz-adv-x="426" 
d="M339 662l-140 -143h-112l107 143h145z" />
    <glyph glyph-name="logicalnot" unicode="&#xac;" horiz-adv-x="549" 
d="M451 593c0 -39 -32 -71 -71 -71s-71 32 -71 71s32 71 71 71s71 -32 71 -71zM241 593c0 -39 -32 -71 -71 -71s-71 32 -71 71s32 71 71 71s71 -32 71 -71z" />
    <glyph glyph-name="uni00AD" unicode="&#xad;" horiz-adv-x="513" 
d="M465 174h-225l-83 -174h-103l83 174h-88v107h140l47 98h-187v107h238l69 144h103l-69 -144h75v-107h-126l-47 -98h173v-107z" />
    <glyph glyph-name="registered" unicode="&#xae;" horiz-adv-x="790" 
d="M760 630l-59 -115h-204v-118h224v-114h-224v-168h257v-115h-391v104h-150l-56 -104h-147l344 630h406zM363 210v176l-94 -176h94z" />
    <glyph glyph-name="macron" unicode="&#xaf;" horiz-adv-x="702" 
d="M687 630l-88 -103c48 -57 76 -131 76 -212c0 -178 -138 -324 -324 -324c-63 0 -120 17 -169 46l-31 -37h-136l88 104c-48 57 -77 130 -77 211c0 178 139 324 325 324c63 0 121 -16 169 -45l31 36h136zM535 315c0 39 -9 76 -25 107l-246 -288c25 -14 55 -22 87 -22
c111 0 184 90 184 203zM437 497c-25 14 -54 21 -86 21c-111 0 -185 -90 -185 -203c0 -39 10 -76 26 -107z" />
    <glyph glyph-name="degree" unicode="&#xb0;" 
 />
    <glyph glyph-name="plusminus" unicode="&#xb1;" horiz-adv-x="512" 
d="M482 270h-172v-152h-107v152h-172v107h172v161h107v-161h172v-107zM482 0h-451v91h451v-91z" />
    <glyph glyph-name="uni00B2" unicode="&#xb2;" 
 />
    <glyph glyph-name="uni00B3" unicode="&#xb3;" 
 />
    <glyph glyph-name="Zcaron" unicode="&#x17d;" horiz-adv-x="619" 
d="M609 630l-129 -223h101v-89h-152l-31 -54h183v-89h-204v-175h-135v175h-205v89h184l-32 54h-152v89h101l-128 223h151l148 -275l148 275h152z" />
    <glyph glyph-name="uni00B5" unicode="&#xb5;" horiz-adv-x="529" 
d="M484 166c0 -106 -84 -175 -219 -175c-29 0 -68 3 -91 9v-161l-128 -106v725h128v-292c0 -46 41 -73 91 -73s91 27 91 73v292h128v-292z" />
    <glyph glyph-name="paragraph" unicode="&#xb6;" horiz-adv-x="428" 
d="M412 0h-360v540l132 104v-527h228v-117z" />
    <glyph glyph-name="periodcentered" unicode="&#xb7;" 
 />
    <glyph glyph-name="zcaron" unicode="&#x17e;" horiz-adv-x="574" 
d="M564 630l-60 -117h-159v-513h-135v513h-185v117h539z" />
    <glyph glyph-name="uni00B9" unicode="&#xb9;" 
 />
    <glyph glyph-name="ordmasculine" unicode="&#xba;" 
 />
    <glyph glyph-name="guillemotright" unicode="&#xbb;" horiz-adv-x="304" 
d="M281 403h-68v23c-15 -20 -37 -30 -63 -30c-64 0 -123 47 -123 122s59 121 123 121c26 0 48 -10 63 -30v21h68v-227zM213 515v5c0 38 -28 59 -63 59c-23 0 -53 -16 -53 -61s30 -62 53 -62c35 0 63 21 63 59z" />
    <glyph glyph-name="OE" unicode="&#x152;" horiz-adv-x="309" 
d="M281 518c0 -65 -54 -122 -127 -122s-126 57 -126 122s53 121 126 121s127 -56 127 -121zM212 518c0 33 -26 60 -58 60s-57 -27 -57 -60s26 -61 57 -61c32 0 58 28 58 61z" />
    <glyph glyph-name="oe" unicode="&#x153;" 
 />
    <glyph glyph-name="Ydieresis" unicode="&#x178;" horiz-adv-x="909" 
d="M880 195h-320c9 -51 49 -94 112 -94c43 0 71 11 108 39l81 -75c-54 -54 -122 -74 -189 -74c-58 0 -119 16 -157 59v-50h-108v44c-31 -31 -79 -53 -128 -53c-139 0 -250 100 -250 238s111 238 250 238c49 0 97 -20 128 -51v42h108v-46c37 35 89 55 142 55
c133 0 223 -88 223 -254v-18zM739 282c-1 44 -36 78 -82 78s-86 -33 -91 -78h173zM407 229c0 78 -43 126 -128 126c-68 0 -119 -44 -119 -126s51 -126 119 -126c85 0 128 48 128 126z" />
    <glyph glyph-name="questiondown" unicode="&#xbf;" horiz-adv-x="562" 
d="M533 230c0 -137 -111 -239 -252 -239c-51 0 -98 13 -137 36l-24 -27h-89l61 69c-40 42 -63 97 -63 161c0 138 111 237 252 237c51 0 98 -13 137 -36l24 27h89l-61 -68c39 -41 63 -96 63 -160zM402 230c0 26 -5 48 -15 67l-163 -181c16 -8 35 -12 57 -12
c77 0 121 52 121 126zM338 343c-16 7 -35 11 -57 11c-77 0 -121 -50 -121 -124c0 -26 6 -50 16 -69z" />
    <glyph glyph-name="Agrave" unicode="&#xc0;" horiz-adv-x="453" 
d="M351 390c0 -43 -34 -77 -77 -77s-77 34 -77 77s34 77 77 77s77 -34 77 -77zM433 -201c-69 -41 -124 -59 -195 -59c-115 0 -218 55 -218 179c0 77 38 134 121 205c62 53 73 71 73 121v35h120v-35c0 -103 -33 -144 -109 -211c-52 -46 -75 -73 -75 -115c0 -48 33 -66 88 -66
c43 0 89 10 141 42z" />
    <glyph glyph-name="Aacute" unicode="&#xc1;" horiz-adv-x="216" 
d="M185 390c0 -43 -34 -77 -77 -77s-77 34 -77 77s34 77 77 77s77 -34 77 -77zM174 -250h-132l14 510h104z" />
    <glyph glyph-name="Acircumflex" unicode="&#xc2;" horiz-adv-x="512" 
d="M464 159h-107v205h-309v107h416v-312z" />
    <glyph glyph-name="Atilde" unicode="&#xc3;" 
 />
    <glyph glyph-name="Adieresis" unicode="&#xc4;" horiz-adv-x="552" 
d="M555 600l-82 -81c-13 10 -34 16 -48 16c-34 0 -60 -8 -72 -70l-14 -73h116l-20 -104h-116l-45 -239c-22 -116 -99 -175 -197 -175c-46 0 -95 13 -138 45l71 77c19 -14 39 -20 58 -20c41 0 70 25 79 73l45 239h-83l19 104h84l14 73c26 137 103 174 199 174
c44 0 92 -12 130 -39z" />
    <glyph glyph-name="Aring" unicode="&#xc5;" 
 />
    <glyph glyph-name="AE" unicode="&#xc6;" horiz-adv-x="231" 
d="M181 -1c0 -148 -48 -224 -232 -224v120c84 0 99 13 99 104v541l133 104v-645z" />
    <glyph glyph-name="Ccedilla" unicode="&#xc7;" horiz-adv-x="599" 
d="M561 78h-128l-160 170l160 170h128l-160 -170zM311 78h-128l-160 170l160 170h128l-160 -170z" />
    <glyph glyph-name="Egrave" unicode="&#xc8;" horiz-adv-x="599" 
d="M576 248l-160 -170h-128l160 170l-160 170h128zM326 248l-160 -170h-128l160 170l-160 170h128z" />
    <glyph glyph-name="Eacute" unicode="&#xc9;" horiz-adv-x="654" 
d="M624 68c0 -43 -34 -77 -77 -77s-77 34 -77 77s34 77 77 77s77 -34 77 -77zM404 68c0 -43 -34 -77 -77 -77s-77 34 -77 77s34 77 77 77s77 -34 77 -77zM184 68c0 -43 -34 -77 -77 -77s-77 34 -77 77s34 77 77 77s77 -34 77 -77z" />
    <glyph glyph-name="Ecircumflex" unicode="&#xca;" horiz-adv-x="185" 
 />
    <glyph glyph-name="Edieresis" unicode="&#xcb;" horiz-adv-x="626" 
d="M616 0h-147l-45 104h-222l-45 -104h-147l303 648zM378 210l-65 150l-65 -150h130zM424 673h-112l-140 143h145z" />
    <glyph glyph-name="Igrave" unicode="&#xcc;" horiz-adv-x="626" 
d="M616 0h-147l-45 104h-222l-45 -104h-147l303 648zM378 210l-65 150l-65 -150h130zM505 816l-53 -101c-15 -28 -34 -43 -57 -43c-13 0 -27 5 -42 14l-49 30c-10 6 -16 9 -20 9s-7 -3 -11 -8l-28 -38h-84l62 101c17 27 36 43 59 43c12 0 25 -4 40 -14l48 -31
c9 -6 16 -9 20 -9c5 0 8 3 12 9l28 38h75z" />
    <glyph glyph-name="Iacute" unicode="&#xcd;" horiz-adv-x="707" 
d="M678 315c0 -178 -138 -324 -324 -324s-325 146 -325 324s139 324 325 324s324 -146 324 -324zM538 315c0 113 -73 203 -184 203s-185 -90 -185 -203s74 -203 185 -203s184 90 184 203zM531 817l-53 -101c-15 -28 -34 -43 -57 -43c-13 0 -27 5 -42 14l-49 30
c-10 6 -16 9 -20 9s-7 -3 -11 -8l-28 -38h-84l62 101c17 27 36 43 59 43c12 0 25 -4 40 -14l48 -31c9 -6 16 -9 20 -9c5 0 8 3 12 9l28 38h75z" />
    <glyph glyph-name="Icircumflex" unicode="&#xce;" horiz-adv-x="962" 
d="M932 630l-59 -115h-204v-118h224v-114h-224v-168h257v-115h-391v57c-54 -45 -113 -66 -186 -66c-186 0 -325 146 -325 324s139 324 325 324c71 0 131 -21 186 -66v57h397zM533 315c0 113 -73 203 -184 203s-185 -90 -185 -203s74 -203 185 -203s184 90 184 203z" />
    <glyph glyph-name="Idieresis" unicode="&#xcf;" horiz-adv-x="888" 
d="M859 195h-320c9 -51 49 -94 112 -94c43 0 71 11 108 39l81 -75c-54 -54 -122 -74 -189 -74c-71 0 -138 25 -185 74c-46 -46 -111 -74 -185 -74c-141 0 -252 102 -252 239c0 138 111 237 252 237c73 0 138 -26 184 -71c43 45 103 71 171 71c133 0 223 -88 223 -254v-18z
M718 282c-1 45 -36 78 -82 78s-82 -29 -91 -78h173zM402 230c0 74 -44 124 -121 124s-121 -50 -121 -124s44 -126 121 -126s121 52 121 126z" />
    <glyph glyph-name="Eth" unicode="&#xd0;" horiz-adv-x="371" 
d="M328 201h-285v101h285v-101z" />
    <glyph glyph-name="Ntilde" unicode="&#xd1;" horiz-adv-x="586" 
d="M543 201h-500v101h500v-101z" />
    <glyph glyph-name="Ograve" unicode="&#xd2;" horiz-adv-x="407" 
d="M380 538c0 -43 -34 -77 -77 -77s-77 34 -77 78c0 72 25 117 74 179h72c-40 -54 -51 -82 -54 -105c35 -7 62 -38 62 -75zM181 538c0 -43 -34 -77 -77 -77s-77 34 -77 78c0 72 25 117 74 179h72c-40 -54 -51 -82 -54 -105c35 -7 62 -38 62 -75z" />
    <glyph glyph-name="Oacute" unicode="&#xd3;" horiz-adv-x="407" 
d="M380 644c0 -72 -25 -117 -74 -179h-72c40 54 51 82 54 105c-35 7 -62 38 -62 75c0 43 34 77 77 77s77 -34 77 -78zM181 644c0 -72 -25 -117 -74 -179h-72c40 54 51 82 54 105c-35 7 -62 38 -62 75c0 43 34 77 77 77s77 -34 77 -78z" />
    <glyph glyph-name="Ocircumflex" unicode="&#xd4;" horiz-adv-x="208" 
d="M181 537c0 -43 -34 -77 -77 -77s-77 34 -77 78c0 72 25 117 74 179h72c-40 -54 -51 -82 -54 -105c35 -7 62 -38 62 -75z" />
    <glyph glyph-name="Otilde" unicode="&#xd5;" horiz-adv-x="208" 
d="M181 644c0 -72 -25 -117 -74 -179h-72c40 54 51 82 54 105c-35 7 -62 38 -62 75c0 43 34 77 77 77s77 -34 77 -78z" />
    <glyph glyph-name="Odieresis" unicode="&#xd6;" horiz-adv-x="513" 
d="M334 512c0 -43 -34 -77 -77 -77s-77 34 -77 77s34 77 77 77s77 -34 77 -77zM482 259h-451v107h451v-107zM334 120c0 -43 -34 -77 -77 -77s-77 34 -77 77s34 77 77 77s77 -34 77 -77z" />
    <glyph glyph-name="multiply" unicode="&#xd7;" 
 />
    <glyph glyph-name="Oslash" unicode="&#xd8;" horiz-adv-x="554" 
d="M539 458l-321 -699h-141l126 274l-188 425h146l115 -279l122 279h141zM456 590c0 -39 -32 -71 -71 -71s-71 32 -71 71s32 71 71 71s71 -32 71 -71zM246 590c0 -39 -32 -71 -71 -71s-71 32 -71 71s32 71 71 71s71 -32 71 -71z" />
    <glyph glyph-name="Ugrave" unicode="&#xd9;" horiz-adv-x="629" 
d="M614 630l-232 -403v-227h-135v227l-232 403h151l148 -275l148 275h152zM490 743c0 -39 -32 -71 -71 -71s-71 32 -71 71s32 71 71 71s71 -32 71 -71zM280 743c0 -39 -32 -71 -71 -71s-71 32 -71 71s32 71 71 71s71 -32 71 -71z" />
    <glyph glyph-name="Uacute" unicode="&#xda;" horiz-adv-x="206" 
d="M361 630l-420 -630h-96l420 630h96z" />
    <glyph glyph-name="Ucircumflex" unicode="&#xdb;" horiz-adv-x="588" 
d="M573 95c-66 -74 -133 -104 -225 -104c-136 0 -236 79 -270 214h-70l38 76h20c-1 12 -1 21 -1 34c0 12 0 20 1 31h-56l38 75h30c32 133 133 218 270 218c92 0 159 -30 225 -104l-80 -87c-48 49 -94 70 -145 70c-66 0 -104 -32 -127 -97h216l-37 -75h-195
c-1 -11 -2 -19 -2 -31c0 -13 1 -22 2 -34h167l-35 -76h-115c24 -63 58 -93 126 -93c51 0 98 22 146 71z" />
    <glyph glyph-name="Udieresis" unicode="&#xdc;" horiz-adv-x="349" 
d="M311 78h-128l-160 170l160 170h128l-160 -170z" />
    <glyph glyph-name="Yacute" unicode="&#xdd;" horiz-adv-x="349" 
d="M326 248l-160 -170h-128l160 170l-160 170h128z" />
    <glyph glyph-name="Thorn" unicode="&#xde;" horiz-adv-x="590" 
d="M547 619c0 -39 -32 -71 -72 -71s-72 32 -72 71s32 72 72 72s72 -33 72 -72zM539 0h-128v354h-212v-354h-128v354h-58v104h58v73c0 131 88 174 182 174c48 0 95 -15 131 -40l-80 -82c-16 11 -28 13 -45 13c-32 0 -60 -21 -60 -65v-73h340v-458z" />
    <glyph glyph-name="germandbls" unicode="&#xdf;" horiz-adv-x="550" 
d="M497 0h-128v568c-20 11 -64 28 -100 28c-42 0 -70 -24 -70 -65v-73h100v-104h-100v-354h-128v354h-58v104h58v73c0 128 92 174 192 174c60 0 107 -19 149 -41l85 67v-731z" />
    <glyph glyph-name="agrave" unicode="&#xe0;" horiz-adv-x="304" 
d="M283 234h-83v-244l-96 71v173h-83v83h83v67h-83v83h83v163h96v-163h83v-83h-83v-67h83v-83z" />
    <glyph glyph-name="aacute" unicode="&#xe1;" horiz-adv-x="214" 
d="M184 296c0 -43 -34 -77 -77 -77s-77 34 -77 77s34 77 77 77s77 -34 77 -77z" />
    <glyph glyph-name="acircumflex" unicode="&#xe2;" horiz-adv-x="208" 
d="M181 67c0 -72 -25 -117 -74 -179h-72c40 54 51 82 54 105c-35 7 -62 38 -62 75c0 43 34 77 77 77s77 -34 77 -78z" />
    <glyph glyph-name="atilde" unicode="&#xe3;" horiz-adv-x="407" 
d="M380 66c0 -72 -25 -117 -74 -179h-72c40 54 51 82 54 105c-35 7 -62 38 -62 75c0 43 34 77 77 77s77 -34 77 -78zM181 66c0 -72 -25 -117 -74 -179h-72c40 54 51 82 54 105c-35 7 -62 38 -62 75c0 43 34 77 77 77s77 -34 77 -78z" />
    <glyph glyph-name="adieresis" unicode="&#xe4;" horiz-adv-x="1096" 
d="M1051 169c0 -79 -31 -178 -141 -178s-140 99 -140 178s30 178 140 178s141 -99 141 -178zM726 169c0 -79 -31 -178 -141 -178s-140 99 -140 178s30 178 140 178s141 -99 141 -178zM643 630l-420 -630h-96l420 630h96zM326 461c0 -79 -31 -178 -141 -178s-140 99 -140 178
s30 178 140 178s141 -99 141 -178zM970 169c0 72 -24 107 -60 107s-59 -35 -59 -107s23 -107 59 -107s60 35 60 107zM645 169c0 72 -24 107 -60 107s-59 -35 -59 -107s23 -107 59 -107s60 35 60 107zM245 461c0 72 -24 107 -60 107s-59 -35 -59 -107s23 -107 59 -107
s60 35 60 107z" />
    <glyph glyph-name="aring" unicode="&#xe5;" horiz-adv-x="626" 
d="M616 0h-147l-45 104h-222l-45 -104h-147l303 648zM378 210l-65 150l-65 -150h130zM483 671h-112l-59 66l-59 -66h-112l107 143h128z" />
    <glyph glyph-name="ae" unicode="&#xe6;" horiz-adv-x="480" 
d="M450 630l-59 -115h-204v-118h224v-114h-224v-168h257v-115h-391v630h397zM419 672h-112l-59 66l-59 -66h-112l107 143h128z" />
    <glyph glyph-name="ccedilla" unicode="&#xe7;" horiz-adv-x="626" 
d="M616 0h-147l-45 104h-222l-45 -104h-147l303 648zM378 210l-65 150l-65 -150h130zM458 815l-140 -143h-112l107 143h145z" />
    <glyph glyph-name="egrave" unicode="&#xe8;" horiz-adv-x="480" 
d="M450 630l-59 -115h-204v-118h224v-114h-224v-168h257v-115h-391v630h397zM426 742c0 -39 -32 -71 -71 -71s-71 32 -71 71s32 71 71 71s71 -32 71 -71zM216 742c0 -39 -32 -71 -71 -71s-71 32 -71 71s32 71 71 71s71 -32 71 -71z" />
    <glyph glyph-name="eacute" unicode="&#xe9;" horiz-adv-x="480" 
d="M450 630l-59 -115h-204v-118h224v-114h-224v-168h257v-115h-391v630h397zM345 672h-112l-140 143h145z" />
    <glyph glyph-name="ecircumflex" unicode="&#xea;" horiz-adv-x="244" 
d="M190 0h-136v630h136v-630zM306 814l-140 -143h-112l107 143h145z" />
    <glyph glyph-name="edieresis" unicode="&#xeb;" horiz-adv-x="244" 
d="M190 0h-136v630h136v-630zM291 671h-112l-59 66l-59 -66h-112l107 143h128z" />
    <glyph glyph-name="igrave" unicode="&#xec;" horiz-adv-x="244" 
d="M190 0h-136v630h136v-630zM292 743c0 -39 -32 -71 -71 -71s-71 32 -71 71s32 71 71 71s71 -32 71 -71zM82 743c0 -39 -32 -71 -71 -71s-71 32 -71 71s32 71 71 71s71 -32 71 -71z" />
    <glyph glyph-name="iacute" unicode="&#xed;" horiz-adv-x="244" 
d="M190 0h-136v630h136v-630zM200 672h-112l-140 143h145z" />
    <glyph glyph-name="icircumflex" unicode="&#xee;" horiz-adv-x="707" 
d="M678 315c0 -178 -138 -324 -324 -324s-325 146 -325 324s139 324 325 324s324 -146 324 -324zM538 315c0 113 -73 203 -184 203s-185 -90 -185 -203s74 -203 185 -203s184 90 184 203zM502 815l-140 -143h-112l107 143h145z" />
    <glyph glyph-name="idieresis" unicode="&#xef;" horiz-adv-x="707" 
d="M678 315c0 -178 -138 -324 -324 -324s-325 146 -325 324s139 324 325 324s324 -146 324 -324zM538 315c0 113 -73 203 -184 203s-185 -90 -185 -203s74 -203 185 -203s184 90 184 203zM525 672h-112l-59 66l-59 -66h-112l107 143h128z" />
    <glyph glyph-name="eth" unicode="&#xf0;" 
 />
    <glyph glyph-name="ntilde" unicode="&#xf1;" horiz-adv-x="707" 
d="M678 315c0 -178 -138 -324 -324 -324s-325 146 -325 324s139 324 325 324s324 -146 324 -324zM538 315c0 113 -73 203 -184 203s-185 -90 -185 -203s74 -203 185 -203s184 90 184 203zM457 672h-112l-140 143h145z" />
    <glyph glyph-name="ograve" unicode="&#xf2;" horiz-adv-x="634" 
d="M595 291c0 -186 -104 -300 -278 -300s-278 114 -278 300v339h136v-339c0 -123 49 -184 142 -184s142 61 142 184v339h136v-339zM456 814l-140 -143h-112l107 143h145z" />
    <glyph glyph-name="oacute" unicode="&#xf3;" horiz-adv-x="634" 
d="M595 291c0 -186 -104 -300 -278 -300s-278 114 -278 300v339h136v-339c0 -123 49 -184 142 -184s142 61 142 184v339h136v-339zM486 672h-112l-59 66l-59 -66h-112l107 143h128z" />
    <glyph glyph-name="ocircumflex" unicode="&#xf4;" horiz-adv-x="634" 
d="M595 291c0 -186 -104 -300 -278 -300s-278 114 -278 300v339h136v-339c0 -123 49 -184 142 -184s142 61 142 184v339h136v-339zM431 671h-112l-140 143h145z" />
    <glyph glyph-name="otilde" unicode="&#xf5;" horiz-adv-x="230" 
d="M179 0h-128v458h128v-458z" />
    <glyph glyph-name="odieresis" unicode="&#xf6;" horiz-adv-x="426" 
d="M384 519h-112l-59 66l-59 -66h-112l107 143h128z" />
    <glyph glyph-name="divide" unicode="&#xf7;" horiz-adv-x="512" 
d="M492 662l-140 -143h-112l107 143h145zM272 662l-140 -143h-112l107 143h145z" />
    <glyph glyph-name="oslash" unicode="&#xf8;" horiz-adv-x="426" 
d="M343 565h-260v86h260v-86z" />
    <glyph glyph-name="ugrave" unicode="&#xf9;" horiz-adv-x="426" 
d="M385 662l-67 -88c-40 -52 -73 -59 -105 -59s-65 7 -105 59l-67 88h103l47 -52c6 -6 14 -12 22 -12s16 6 22 12l47 52h103z" />
    <glyph glyph-name="uacute" unicode="&#xfa;" horiz-adv-x="214" 
d="M184 595c0 -43 -34 -77 -77 -77s-77 34 -77 77s34 77 77 77s77 -34 77 -77z" />
    <glyph glyph-name="ucircumflex" unicode="&#xfb;" horiz-adv-x="406" 
d="M312 593c0 -60 -49 -108 -109 -108s-108 48 -108 108s48 109 108 109s109 -49 109 -109zM246 594c0 23 -20 42 -43 42s-41 -19 -41 -42s18 -42 41 -42s43 19 43 42z" />
    <glyph glyph-name="udieresis" unicode="&#xfc;" horiz-adv-x="268" 
d="M243 -108c0 -68 -59 -92 -120 -92c-45 0 -90 12 -120 28l30 47c22 -11 59 -22 90 -22c26 0 45 11 45 39c0 17 -12 31 -45 31h-83l57 93h65l-25 -42c59 0 106 -31 106 -82z" />
    <glyph glyph-name="yacute" unicode="&#xfd;" horiz-adv-x="406" 
d="M375 676l-53 -101c-15 -28 -34 -43 -57 -43c-13 0 -27 5 -42 14l-49 30c-10 6 -16 9 -20 9s-7 -3 -11 -8l-28 -38h-84l62 101c17 27 36 43 59 43c12 0 25 -4 40 -14l48 -31c9 -6 16 -9 20 -9c5 0 8 3 12 9l28 38h75z" />
    <glyph glyph-name="thorn" unicode="&#xfe;" horiz-adv-x="268" 
d="M258 -165c-32 -19 -81 -35 -126 -35c-53 0 -105 20 -105 92c0 62 56 99 96 116h111c-82 -32 -122 -61 -122 -109c0 -27 18 -35 40 -35c28 0 62 13 78 20z" />
    <glyph glyph-name="ydieresis" unicode="&#xff;" horiz-adv-x="426" 
d="M384 662l-107 -143h-128l-107 143h112l59 -66l59 66h112z" />
    <glyph glyph-name="Euro" unicode="&#x20ac;" horiz-adv-x="588" 
d="M573 95c-66 -74 -133 -104 -225 -104c-136 0 -236 79 -270 214h-70l38 76h20c-1 12 -1 21 -1 34c0 12 0 20 1 31h-56l38 75h30c32 133 133 218 270 218c92 0 159 -30 225 -104l-80 -87c-48 49 -94 70 -145 70c-66 0 -104 -32 -127 -97h216l-37 -75h-195
c-1 -11 -2 -19 -2 -31c0 -13 1 -22 2 -34h167l-35 -76h-115c24 -63 58 -93 126 -93c51 0 98 22 146 71z" />
    </font>
</defs>
</svg>
