<?xml version="1.0" standalone="no"?>
<!DOCTYPE svg PUBLIC "-//W3C//DTD SVG 1.1//EN" "http://www.w3.org/Graphics/SVG/1.1/DTD/svg11.dtd" >
<svg xmlns="http://www.w3.org/2000/svg" width="100%" height="100%">
<metadata>
Created by FontXChange 20110222 at Wed Nov 12 11:34:22 2014
 By Jason Rainbird
Copyright (c) 2002. Waitrose Limited. All rights reserved.
</metadata>
<defs>
<font id="Waitrose-Light" horiz-adv-x="1024" >
  <font-face 
    font-family="Waitrose"
    font-weight="200"
    font-stretch="normal"
    units-per-em="1000"
    panose-1="2 0 3 3 0 0 0 0 0 0"
    ascent="734"
    descent="-266"
    x-height="458"
    cap-height="630"
    bbox="-153 -262 905 831"
    underline-thickness="20"
    underline-position="-133"
    stemh="20.628"
    stemv="48.551"
    unicode-range="U+0001-20AC"
  />
    <missing-glyph />
    <glyph glyph-name="uni0000" 
 />
    <glyph glyph-name="uni0001" horiz-adv-x="488" 
d="M479 630l-28 -42h-182v-588h-50v588h-192v42h452z" />
    <glyph glyph-name="uni0002" horiz-adv-x="380" 
d="M346 0h-290v589l50 50v-597h240v-42z" />
    <glyph glyph-name="uni0003" horiz-adv-x="380" 
d="M346 0h-290v283l-44 -38v58l44 38v289h50v-246l82 71v-58l-82 -71v-284h240v-42z" />
    <glyph glyph-name="uni0004" horiz-adv-x="180" 
d="M168 430l-55 -47v-383h-46v345l-55 -47v55l55 47v272l46 46v-280l55 47v-55z" />
    <glyph glyph-name="uni0005" horiz-adv-x="434" 
d="M387 148c0 -69 -45 -157 -180 -157c-61 0 -117 14 -167 44v52c50 -31 105 -54 167 -54c92 0 128 50 128 115c0 45 -14 74 -77 114l-138 88c-54 34 -83 82 -83 140c0 91 64 149 171 149c68 0 119 -21 159 -46v-51c-48 32 -101 56 -159 56c-65 0 -121 -25 -121 -108
c0 -39 16 -68 71 -103l130 -83c73 -47 99 -89 99 -156zM348 810l-99 -143h-72l-99 143h41l94 -111l94 111h41z" />
    <glyph glyph-name="uni0006" horiz-adv-x="340" 
d="M309 109c0 -71 -50 -118 -146 -118c-41 0 -91 13 -131 38v52c45 -28 88 -47 131 -47c54 0 96 19 96 75c0 33 -24 54 -74 87l-82 54c-48 31 -69 66 -69 109c0 82 74 108 136 108c41 0 89 -10 127 -30v-48c-44 24 -85 36 -127 36c-50 0 -89 -13 -89 -66
c0 -22 15 -47 59 -76l79 -52c64 -42 90 -77 90 -122zM306 662l-99 -143h-72l-99 143h41l94 -111l94 111h41z" />
    <glyph glyph-name="uni0007" horiz-adv-x="509" 
d="M487 630l-208 -403v-227h-49v227l-208 403h52l180 -365l181 365h52zM358 809l-140 -143h-41l109 143h72z" />
    <glyph glyph-name="uni0008" horiz-adv-x="450" 
d="M428 458l-293 -699h-48l111 264l-176 435h53l146 -378l159 378h48zM345 662l-140 -143h-41l109 143h72z" />
    <glyph glyph-name="uni0009" unicode="&#x9;" 
 />
    <glyph glyph-name="uni000A" unicode="&#xa;" 
 />
    <glyph glyph-name="uni000B" horiz-adv-x="174" 
d="M112 -24c0 -136 -34 -193 -151 -200v42c89 8 101 51 101 158v613l50 50v-663z" />
    <glyph glyph-name="uni000C" horiz-adv-x="523" 
d="M489 229c0 -141 -103 -238 -214 -238c-118 0 -158 70 -173 92v-301l-46 -43v933l46 46v-338c18 22 60 87 173 87c118 0 214 -99 214 -238zM439 229c0 133 -80 198 -164 198c-113 0 -173 -81 -173 -198s60 -198 173 -198c84 0 164 71 164 198z" />
    <glyph glyph-name="uni000D" unicode="&#xd;" 
 />
    <glyph glyph-name="uni000E" horiz-adv-x="495" 
d="M456 42l-28 -42h-381l313 588h-308v42h386l-312 -588h330zM378 809l-99 -143h-72l-99 143h41l94 -111l94 111h41z" />
    <glyph glyph-name="uni000F" horiz-adv-x="404" 
d="M372 40l-26 -40h-311l254 418h-249v40h326l-253 -418h259zM337 662l-99 -143h-72l-99 143h41l94 -111l94 111h41z" />
    <glyph glyph-name="uni0010" 
 />
    <glyph glyph-name="uni0011" 
 />
    <glyph glyph-name="uni0012" 
 />
    <glyph glyph-name="uni0013" 
 />
    <glyph glyph-name="uni0014" 
 />
    <glyph glyph-name="uni0015" horiz-adv-x="607" 
d="M577 35l-24 -35h-210l140 173c32 40 40 57 40 83c0 41 -24 57 -67 57c-28 0 -55 -7 -80 -35l-27 19c33 38 68 50 107 50c60 0 105 -28 105 -91c0 -35 -14 -61 -51 -107l-93 -114h160zM506 630l-418 -630h-41l418 630h41zM146 290h-38v273l-38 -35v40l76 71v-349z" />
    <glyph glyph-name="uni0016" horiz-adv-x="570" 
d="M506 630l-418 -630h-41l418 630h41zM533 131l-22 -31h-19v-100h-38v100h-164l202 250v-219h41zM146 290h-38v273l-38 -35v40l76 71v-349zM454 131v118l-96 -118h96z" />
    <glyph glyph-name="uni0017" horiz-adv-x="299" 
d="M179 290h-38v273l-38 -35v40l76 71v-349z" />
    <glyph glyph-name="uni0018" horiz-adv-x="592" 
d="M557 630l-418 -630h-41l418 630h41zM564 131l-22 -31h-19v-100h-38v100h-164l202 250v-219h41zM251 387c0 -66 -46 -104 -111 -104c-36 0 -74 12 -107 50l27 20c25 -28 52 -36 80 -36c47 0 72 27 72 70c0 39 -26 68 -69 68h-50v35h50c38 0 66 21 66 56
c0 41 -26 60 -69 60c-28 0 -55 -8 -80 -36l-27 20c33 38 71 50 107 50c60 0 108 -29 108 -94c0 -33 -18 -61 -48 -74c35 -17 51 -47 51 -85zM485 131v118l-96 -118h96z" />
    <glyph glyph-name="uni0019" horiz-adv-x="299" 
d="M251 387c0 -66 -46 -104 -111 -104c-36 0 -74 12 -107 50l27 20c25 -28 52 -36 80 -36c47 0 72 27 72 70c0 39 -26 68 -69 68h-50v35h50c38 0 66 21 66 56c0 41 -26 60 -69 60c-28 0 -55 -8 -80 -36l-27 20c33 38 71 50 107 50c60 0 108 -29 108 -94
c0 -33 -18 -61 -48 -74c35 -17 51 -47 51 -85z" />
    <glyph glyph-name="uni001A" horiz-adv-x="299" 
d="M261 328l-23 -35h-211l140 173c32 40 40 57 40 83c0 41 -24 57 -67 57c-28 0 -55 -7 -80 -35l-27 19c33 38 68 50 107 50c60 0 105 -28 105 -91c0 -35 -14 -61 -51 -107l-93 -114h160z" />
    <glyph glyph-name="uni001B" horiz-adv-x="163" 
d="M107 355h-51v370h51v-370zM107 -140h-51v369h51v-369z" />
    <glyph glyph-name="uni001C" horiz-adv-x="512" 
d="M464 296h-416v42h416v-42z" />
    <glyph glyph-name="uni001D" horiz-adv-x="511" 
d="M428 176l-30 -30l-142 143l-143 -143l-30 30l143 142l-143 143l30 30l143 -143l142 143l30 -30l-143 -143z" />
    <glyph glyph-name="uni001E" 
 />
    <glyph glyph-name="uni001F" 
 />
    <glyph glyph-name="space" unicode=" " horiz-adv-x="206" 
 />
    <glyph glyph-name="exclam" unicode="!" horiz-adv-x="179" 
d="M117 708l-9 -580h-37l-9 580h55zM123 25c0 -19 -15 -34 -34 -34s-33 15 -33 34s14 33 33 33s34 -14 34 -33z" />
    <glyph glyph-name="quotedbl" unicode="&#x22;" horiz-adv-x="284" 
d="M237 722l-40 -183h-30l20 183h50zM117 722l-40 -183h-30l20 183h50z" />
    <glyph glyph-name="numbersign" unicode="#" horiz-adv-x="491" 
d="M449 426l-6 -42h-87l-19 -138h87l-6 -42h-87l-29 -204h-42l29 204h-118l-29 -204h-42l29 204h-87l6 42h87l19 138h-87l6 42h87l29 204h42l-29 -204h118l29 204h42l-29 -204h87zM314 384h-118l-19 -138h118z" />
    <glyph glyph-name="dollar" unicode="$" horiz-adv-x="429" 
d="M387 147c0 -64 -39 -144 -155 -155v-71h-40v70c-56 2 -106 17 -152 44v48c50 -30 105 -53 167 -53c94 0 131 51 131 117c0 46 -16 76 -79 116l-139 88c-54 34 -83 82 -83 140c0 86 53 142 155 148v72h40v-73c57 -4 100 -23 135 -45v-47c-48 32 -101 55 -159 55
c-67 0 -124 -21 -124 -110c0 -40 17 -69 73 -105l131 -83c73 -46 99 -89 99 -156z" />
    <glyph glyph-name="percent" unicode="%" horiz-adv-x="648" 
d="M614 169c0 -90 -27 -178 -123 -178s-123 88 -123 178s27 178 123 178s123 -88 123 -178zM554 630l-428 -639h-41l428 639h41zM280 461c0 -90 -27 -178 -123 -178s-123 88 -123 178s27 178 123 178s123 -88 123 -178zM574 169c0 78 -19 144 -83 144s-82 -66 -82 -144
s18 -144 82 -144s83 66 83 144zM240 461c0 78 -19 144 -83 144s-82 -66 -82 -144s18 -145 82 -145s83 67 83 145z" />
    <glyph glyph-name="ampersand" unicode="&#x26;" horiz-adv-x="565" 
d="M532 0h-56l-63 74c-45 -50 -104 -83 -181 -83c-91 0 -176 66 -176 160c0 71 31 113 86 150l49 33l-36 43c-35 42 -53 78 -53 124c0 91 72 138 145 138c74 0 146 -47 146 -138c0 -47 -18 -96 -84 -140l-54 -36l157 -184c28 44 47 97 60 149l33 -38
c-15 -50 -37 -100 -66 -143zM346 501c0 63 -40 98 -99 98c-53 0 -98 -32 -98 -98c0 -43 14 -67 39 -96l40 -47l59 39c41 27 59 58 59 104zM386 106l-167 195l-54 -36c-42 -28 -63 -56 -63 -114c0 -74 68 -120 130 -120c66 0 116 30 154 75z" />
    <glyph glyph-name="quotesingle" unicode="'" horiz-adv-x="164" 
d="M117 722l-40 -183h-30l20 183h50z" />
    <glyph glyph-name="parenleft" unicode="(" horiz-adv-x="249" 
d="M241 -260h-42c-105 87 -158 278 -158 470s53 383 158 470h42c-122 -119 -152 -307 -152 -470s30 -351 152 -470z" />
    <glyph glyph-name="parenright" unicode=")" horiz-adv-x="249" 
d="M208 210c0 -192 -53 -383 -158 -470h-42c122 119 152 307 152 470s-30 351 -152 470h42c105 -87 158 -278 158 -470z" />
    <glyph glyph-name="asterisk" unicode="*" horiz-adv-x="343" 
d="M310 512l-116 -28l77 -90l-38 -27l-61 101l-62 -101l-38 27l77 90l-115 28l14 45l110 -46l-10 118h47l-9 -118l109 46z" />
    <glyph glyph-name="plus" unicode="+" horiz-adv-x="510" 
d="M478 314h-202v-202h-42v202h-202v42h202v202h42v-202h202v-42z" />
    <glyph glyph-name="comma" unicode="," horiz-adv-x="182" 
d="M129 14c0 -47 -25 -92 -54 -128h-22c37 49 41 89 41 104c-19 0 -34 15 -34 34s16 34 33 34c26 0 36 -21 36 -44z" />
    <glyph glyph-name="hyphen" unicode="-" horiz-adv-x="279" 
d="M237 230h-195v42h195v-42z" />
    <glyph glyph-name="period" unicode="." horiz-adv-x="186" 
d="M127 25c0 -19 -15 -34 -34 -34s-33 15 -33 34s14 33 33 33s34 -14 34 -33z" />
    <glyph glyph-name="slash" unicode="/" horiz-adv-x="415" 
d="M392 630l-328 -639h-41l328 639h41z" />
    <glyph glyph-name="zero" unicode="0" horiz-adv-x="528" 
d="M476 315c0 -170 -49 -324 -212 -324s-212 154 -212 324s49 324 212 324s212 -154 212 -324zM426 315c0 145 -33 284 -162 284s-162 -139 -162 -284s33 -284 162 -284s162 139 162 284z" />
    <glyph glyph-name="one" unicode="1" horiz-adv-x="280" 
d="M188 0h-46v557l-97 -71v46l143 107v-639z" />
    <glyph glyph-name="two" unicode="2" horiz-adv-x="467" 
d="M438 39l-27 -39h-375l253 305c63 76 81 117 81 171c0 85 -57 123 -144 123c-58 0 -110 -17 -154 -64l-29 29c45 52 115 75 183 75c112 0 190 -54 190 -163c0 -61 -24 -112 -96 -198l-199 -239h317z" />
    <glyph glyph-name="three" unicode="3" horiz-adv-x="479" 
d="M427 173c0 -115 -82 -182 -203 -182c-68 0 -138 24 -183 76l29 29c44 -47 96 -64 154 -64c97 0 154 51 154 141c0 83 -61 144 -151 144h-81v39h81c77 0 146 43 146 120c0 88 -61 123 -148 123c-58 0 -110 -17 -154 -64l-29 29c45 52 115 75 183 75
c112 0 196 -51 196 -163c0 -67 -43 -120 -107 -141c74 -28 113 -86 113 -162z" />
    <glyph glyph-name="four" unicode="4" horiz-adv-x="477" 
d="M454 237l-27 -39h-46v-198h-46v198h-318l364 441v-402h73zM335 237v278l-229 -278h229z" />
    <glyph glyph-name="five" unicode="5" horiz-adv-x="488" 
d="M436 190c0 -119 -81 -199 -200 -199c-68 0 -138 24 -183 76l29 29c44 -47 97 -65 155 -65c100 0 151 62 151 159c0 117 -90 153 -228 153h-92l36 287h317l-27 -39h-251l-27 -207h44c200 0 276 -72 276 -194z" />
    <glyph glyph-name="six" unicode="6" horiz-adv-x="498" 
d="M451 200c0 -110 -69 -209 -200 -209c-116 0 -197 77 -197 239v81c0 140 11 328 197 328c68 0 137 -23 182 -75l-29 -29c-44 47 -95 64 -153 64c-135 0 -151 -148 -151 -247v-28c28 42 79 77 151 77c134 0 200 -79 200 -201zM403 200c0 92 -40 162 -152 162
c-123 0 -151 -96 -151 -160c0 -91 52 -171 151 -171c109 0 152 78 152 169z" />
    <glyph glyph-name="seven" unicode="7" horiz-adv-x="428" 
d="M411 630l-321 -630h-50l302 591h-320l27 39h362z" />
    <glyph glyph-name="eight" unicode="8" horiz-adv-x="506" 
d="M451 173c0 -122 -99 -182 -198 -182s-198 60 -198 182c0 86 54 147 113 167c-61 21 -106 66 -106 144c0 104 95 155 191 155s191 -51 191 -155c0 -78 -44 -123 -105 -144c59 -20 112 -81 112 -167zM397 484c0 79 -71 117 -144 117c-72 0 -144 -38 -144 -117
c0 -81 50 -121 144 -121s144 40 144 121zM404 173c0 86 -55 148 -151 148s-151 -62 -151 -148c0 -96 75 -144 151 -144c75 0 151 48 151 144z" />
    <glyph glyph-name="nine" unicode="9" horiz-adv-x="498" 
d="M444 319c0 -140 -11 -328 -197 -328c-68 0 -137 23 -182 75l29 29c44 -47 95 -64 153 -64c135 0 151 148 151 247v28c-28 -42 -79 -77 -151 -77c-134 0 -200 79 -200 201c0 110 69 209 200 209c116 0 197 -77 197 -239v-81zM398 428c0 91 -52 171 -151 171
c-109 0 -152 -78 -152 -169c0 -92 40 -162 152 -162c123 0 151 96 151 160z" />
    <glyph glyph-name="colon" unicode=":" horiz-adv-x="191" 
d="M129 434c0 -19 -14 -34 -33 -34s-34 15 -34 34s15 33 34 33s33 -14 33 -33zM129 25c0 -19 -14 -34 -33 -34s-34 15 -34 34s15 33 34 33s33 -14 33 -33z" />
    <glyph glyph-name="semicolon" unicode=";" horiz-adv-x="194" 
d="M129 434c0 -19 -14 -34 -33 -34s-34 15 -34 34s15 33 34 33s33 -14 33 -33zM131 14c0 -47 -25 -92 -54 -128h-22c37 49 41 89 41 104c-19 0 -34 15 -34 34s16 34 33 34c26 0 36 -21 36 -44z" />
    <glyph glyph-name="less" unicode="&#x3c;" horiz-adv-x="377" 
d="M320 85h-57l-216 230l216 230h57l-216 -230z" />
    <glyph glyph-name="equal" unicode="=" horiz-adv-x="510" 
d="M463 394h-416v42h416v-42zM463 224h-416v42h416v-42z" />
    <glyph glyph-name="greater" unicode="&#x3e;" horiz-adv-x="377" 
d="M330 315l-216 -230h-57l216 230l-216 230h57z" />
    <glyph glyph-name="question" unicode="?" horiz-adv-x="408" 
d="M368 550c0 -82 -28 -141 -113 -211c-57 -47 -63 -83 -63 -166v-45h-45v45c0 95 14 143 78 198c76 64 96 100 96 179c0 92 -59 128 -129 128c-50 0 -107 -18 -145 -46l-19 35c47 32 108 51 165 51c92 0 175 -49 175 -168zM204 25c0 -19 -15 -34 -34 -34s-33 15 -33 34
s14 33 33 33s34 -14 34 -33z" />
    <glyph glyph-name="at" unicode="@" horiz-adv-x="664" 
d="M630 280c0 -152 -77 -228 -204 -228l6 60c-37 -46 -82 -67 -143 -67c-92 0 -152 73 -152 165c0 116 79 221 202 221c48 0 91 -14 120 -52c3 -4 5 -8 7 -12l8 58h43l-44 -329c91 15 115 114 115 184c0 147 -99 235 -251 235c-151 0 -259 -131 -259 -276s108 -275 259 -275
c52 0 97 12 141 39l21 -27c-48 -30 -103 -45 -162 -45c-172 0 -303 137 -303 308s131 309 303 309c171 0 293 -97 293 -268zM452 271c0 75 -40 123 -118 123c-97 0 -151 -96 -151 -184c0 -83 53 -128 111 -128c89 0 144 64 156 157c1 11 2 22 2 32z" />
    <glyph glyph-name="A" unicode="A" horiz-adv-x="552" 
d="M530 0h-55l-70 183h-258l-70 -183h-55l254 640zM389 226l-113 297l-113 -297h226z" />
    <glyph glyph-name="B" unicode="B" horiz-adv-x="494" 
d="M460 177c0 -84 -55 -177 -209 -177h-195v630h190c140 0 187 -86 187 -152c0 -78 -43 -118 -93 -137c53 -19 120 -67 120 -164zM383 478c0 68 -52 110 -137 110h-140v-227h144c101 0 133 45 133 117zM409 177c0 89 -55 142 -159 142h-144v-277h145c111 0 158 51 158 135z
" />
    <glyph glyph-name="C" unicode="C" horiz-adv-x="535" 
d="M512 70c-51 -49 -121 -79 -195 -79c-163 0 -283 143 -283 324s120 324 283 324c74 0 144 -30 195 -79l-30 -32c-46 41 -100 69 -165 69c-145 0 -231 -134 -231 -282s86 -282 231 -282c65 0 119 28 165 69z" />
    <glyph glyph-name="D" unicode="D" horiz-adv-x="552" 
d="M517 315c0 -195 -130 -315 -283 -315h-178v630h178c153 0 283 -120 283 -315zM465 315c0 155 -91 273 -231 273h-128v-546h128c140 0 231 118 231 273z" />
    <glyph glyph-name="E" unicode="E" horiz-adv-x="406" 
d="M372 0h-316v630h300l-28 -42h-222v-225h231v-42h-231v-279h266v-42z" />
    <glyph glyph-name="F" unicode="F" horiz-adv-x="403" 
d="M356 630l-28 -42h-222v-225h231v-42h-231v-321h-50v630h300z" />
    <glyph glyph-name="G" unicode="G" horiz-adv-x="580" 
d="M524 82c-56 -60 -133 -91 -207 -91c-163 0 -283 143 -283 324s120 324 283 324c74 0 144 -30 195 -79l-30 -32c-46 41 -100 69 -165 69c-145 0 -231 -134 -231 -282s86 -282 231 -282c61 0 113 25 157 62v182h50v-195z" />
    <glyph glyph-name="H" unicode="H" horiz-adv-x="562" 
d="M506 0h-50v319h-350v-319h-50v630h50v-269h350v269h50v-630z" />
    <glyph glyph-name="I" unicode="I" horiz-adv-x="174" 
d="M112 0h-50v630h50v-630z" />
    <glyph glyph-name="J" unicode="J" horiz-adv-x="174" 
d="M112 -24c0 -136 -34 -193 -151 -200v42c89 8 101 51 101 158v654h50v-654z" />
    <glyph glyph-name="K" unicode="K" horiz-adv-x="497" 
d="M475 0h-57l-229 325l-84 -101v-224h-49v630h49v-342l283 342h55l-223 -268z" />
    <glyph glyph-name="L" unicode="L" horiz-adv-x="380" 
d="M346 0h-290v630h50v-588h240v-42z" />
    <glyph glyph-name="M" unicode="M" horiz-adv-x="708" 
d="M652 0h-50l-28 483l-220 -356l-220 356l-28 -483h-50l37 639l261 -421l261 421z" />
    <glyph glyph-name="N" unicode="N" horiz-adv-x="562" 
d="M506 -15l-400 514v-499h-50v639l400 -514v505h50v-645z" />
    <glyph glyph-name="O" unicode="O" horiz-adv-x="642" 
d="M608 315c0 -188 -123 -324 -287 -324s-287 136 -287 324s123 324 287 324s287 -136 287 -324zM556 315c0 160 -90 282 -235 282s-235 -122 -235 -282s90 -282 235 -282s235 122 235 282z" />
    <glyph glyph-name="P" unicode="P" horiz-adv-x="479" 
d="M444 446c0 -123 -88 -184 -211 -184h-127v-262h-50v630h177c123 0 211 -61 211 -184zM393 446c0 113 -79 142 -160 142h-127v-284h127c81 0 160 29 160 142z" />
    <glyph glyph-name="Q" unicode="Q" horiz-adv-x="642" 
d="M650 0h-58l-71 77c-51 -54 -121 -86 -200 -86c-164 0 -287 136 -287 324s123 324 287 324s287 -136 287 -324c0 -80 -23 -150 -61 -205zM556 315c0 160 -90 282 -235 282s-235 -122 -235 -282s90 -282 235 -282c70 0 128 29 168 77l-122 131h58l89 -96
c27 47 42 105 42 170z" />
    <glyph glyph-name="R" unicode="R" horiz-adv-x="488" 
d="M454 0h-64l-209 256h-75v-256h-50v630h177c123 0 211 -64 211 -187c0 -119 -82 -183 -199 -187zM393 443c0 113 -79 145 -160 145h-127v-290h127c81 0 160 32 160 145z" />
    <glyph glyph-name="S" unicode="S" horiz-adv-x="434" 
d="M387 148c0 -69 -45 -157 -180 -157c-61 0 -117 14 -167 44v52c50 -31 105 -54 167 -54c92 0 128 50 128 115c0 45 -14 74 -77 114l-138 88c-54 34 -83 82 -83 140c0 91 64 149 171 149c68 0 119 -21 159 -46v-51c-48 32 -101 56 -159 56c-65 0 -121 -25 -121 -108
c0 -39 16 -68 71 -103l130 -83c73 -47 99 -89 99 -156z" />
    <glyph glyph-name="T" unicode="T" horiz-adv-x="488" 
d="M461 588h-192v-588h-50v588h-192v42h434v-42z" />
    <glyph glyph-name="U" unicode="U" horiz-adv-x="598" 
d="M542 278c0 -162 -92 -287 -243 -287s-243 125 -243 287v352h50v-352c0 -142 67 -245 193 -245s193 103 193 245v352h50v-352z" />
    <glyph glyph-name="V" unicode="V" horiz-adv-x="552" 
d="M530 630l-254 -640l-254 640h55l199 -523l199 523h55z" />
    <glyph glyph-name="W" unicode="W" horiz-adv-x="859" 
d="M837 630l-228 -639l-180 502l-179 -502l-228 639h53l176 -506l178 514l179 -514l176 506h53z" />
    <glyph glyph-name="X" unicode="X" horiz-adv-x="523" 
d="M496 0h-57l-178 272l-178 -272h-56l206 315l-206 315h56l178 -272l178 272h57l-206 -315z" />
    <glyph glyph-name="Y" unicode="Y" horiz-adv-x="509" 
d="M487 630l-208 -403v-227h-49v227l-208 403h52l180 -365l181 365h52z" />
    <glyph glyph-name="Z" unicode="Z" horiz-adv-x="495" 
d="M456 42l-28 -42h-381l313 588h-308v42h386l-312 -588h330z" />
    <glyph glyph-name="bracketleft" unicode="[" horiz-adv-x="237" 
d="M235 -261h-179v941h179v-33l-129 -9v-857l129 -9v-33z" />
    <glyph glyph-name="backslash" unicode="\" horiz-adv-x="415" 
d="M392 -9h-41l-328 639h41z" />
    <glyph glyph-name="bracketright" unicode="]" horiz-adv-x="237" 
d="M181 -261h-179v33l129 9v857l-129 9v33h179v-941z" />
    <glyph glyph-name="asciicircum" unicode="^" horiz-adv-x="438" 
d="M381 459h-49l-113 133l-113 -133h-49l119 171h86z" />
    <glyph glyph-name="underscore" unicode="_" horiz-adv-x="511" 
d="M508 -84h-505v40h505v-40z" />
    <glyph glyph-name="grave" unicode="`" horiz-adv-x="404" 
d="M273 519h-41l-140 143h72z" />
    <glyph glyph-name="a" unicode="a" horiz-adv-x="523" 
d="M467 0h-46v80c-18 -22 -60 -89 -173 -89c-118 0 -214 99 -214 238s96 238 214 238c113 0 155 -67 173 -89v80h46v-458zM421 229c0 117 -60 198 -173 198c-84 0 -164 -65 -164 -198s80 -198 164 -198c113 0 173 81 173 198z" />
    <glyph glyph-name="b" unicode="b" horiz-adv-x="523" 
d="M489 229c0 -139 -96 -238 -214 -238c-113 0 -155 67 -173 89v-80h-46v672l46 46v-340c18 22 62 89 173 89c118 0 214 -99 214 -238zM439 229c0 133 -80 198 -164 198c-113 0 -173 -81 -173 -198s60 -198 173 -198c84 0 164 65 164 198z" />
    <glyph glyph-name="c" unicode="c" horiz-adv-x="448" 
d="M416 47c-43 -34 -97 -56 -164 -56c-124 0 -218 98 -218 238s94 238 218 238c67 0 121 -22 164 -56l-30 -33c-32 25 -78 46 -134 46c-87 0 -169 -77 -169 -195s82 -195 169 -195c56 0 102 21 134 46z" />
    <glyph glyph-name="d" unicode="d" horiz-adv-x="523" 
d="M467 0h-46v80c-18 -22 -60 -89 -173 -89c-118 0 -214 99 -214 238s96 238 214 238c113 0 155 -67 173 -89v294l46 46v-718zM421 229c0 117 -60 198 -173 198c-84 0 -164 -65 -164 -198s80 -198 164 -198c113 0 173 81 173 198z" />
    <glyph glyph-name="e" unicode="e" horiz-adv-x="472" 
d="M440 223h-357c6 -118 84 -189 169 -189c56 0 102 20 134 45l30 -33c-43 -34 -97 -55 -164 -55c-112 0 -218 83 -218 247c0 138 88 229 210 229c107 0 196 -81 196 -244zM386 264c-7 102 -71 160 -142 160c-76 0 -151 -51 -160 -160h302z" />
    <glyph glyph-name="f" unicode="f" horiz-adv-x="246" 
d="M278 685l-23 -30c-13 7 -29 12 -47 12c-66 0 -80 -40 -80 -112v-97h97v-40h-97v-418h-46v418h-60v40h60v97c0 101 44 149 126 149c26 0 48 -6 70 -19z" />
    <glyph glyph-name="g" unicode="g" horiz-adv-x="523" 
d="M467 -18c0 -113 -69 -223 -220 -223c-71 0 -127 19 -174 62l29 33c42 -38 83 -55 145 -55c131 0 174 99 174 183v98c-18 -22 -60 -89 -173 -89c-118 0 -214 99 -214 238s96 238 214 238c113 0 155 -67 173 -89v80h46v-476zM421 229c0 117 -60 198 -173 198
c-84 0 -164 -65 -164 -198s80 -198 164 -198c113 0 173 81 173 198z" />
    <glyph glyph-name="h" unicode="h" horiz-adv-x="478" 
d="M422 0h-46v280c0 115 -60 147 -132 147c-81 0 -142 -56 -142 -144v-283h-46v672l46 46v-330c30 51 81 79 142 79c117 0 178 -65 178 -187v-280z" />
    <glyph glyph-name="i" unicode="i" horiz-adv-x="158" 
d="M112 645c0 -18 -15 -33 -33 -33s-33 15 -33 33s15 33 33 33s33 -15 33 -33zM102 0h-46v458h46v-458z" />
    <glyph glyph-name="j" unicode="j" horiz-adv-x="158" 
d="M112 645c0 -18 -15 -33 -33 -33s-33 15 -33 33s15 33 33 33s33 -15 33 -33zM102 -41c0 -132 -16 -191 -131 -199v36c78 6 85 45 85 163v499h46v-499z" />
    <glyph glyph-name="k" unicode="k" horiz-adv-x="429" 
d="M397 0h-60l-171 228l-64 -67v-161h-46v672l46 46v-500l225 240h54l-182 -195z" />
    <glyph glyph-name="l" unicode="l" horiz-adv-x="158" 
d="M102 0h-46v672l46 46v-718z" />
    <glyph glyph-name="m" unicode="m" horiz-adv-x="730" 
d="M674 0h-46v281c0 113 -43 146 -115 146c-69 0 -125 -58 -125 -146v-281h-46v281c0 113 -43 146 -115 146c-69 0 -125 -58 -125 -146v-281h-46v458h46v-70c17 33 56 79 125 79c81 0 128 -31 148 -92c25 55 77 92 138 92c117 0 161 -64 161 -186v-281z" />
    <glyph glyph-name="n" unicode="n" horiz-adv-x="478" 
d="M422 0h-46v280c0 115 -60 147 -132 147c-81 0 -142 -56 -142 -144v-283h-46v458h46v-70c30 51 81 79 142 79c117 0 178 -65 178 -187v-280z" />
    <glyph glyph-name="o" unicode="o" horiz-adv-x="534" 
d="M500 229c0 -132 -100 -238 -233 -238s-233 106 -233 238s100 238 233 238s233 -106 233 -238zM451 229c0 104 -77 196 -184 196s-184 -92 -184 -196s77 -196 184 -196s184 92 184 196z" />
    <glyph glyph-name="p" unicode="p" horiz-adv-x="523" 
d="M489 229c0 -139 -96 -238 -214 -238c-113 0 -155 67 -173 89v-295l-46 -46v719h46v-80c18 22 60 89 173 89c118 0 214 -99 214 -238zM439 229c0 133 -80 198 -164 198c-113 0 -173 -81 -173 -198s60 -198 173 -198c84 0 164 65 164 198z" />
    <glyph glyph-name="q" unicode="q" horiz-adv-x="523" 
d="M467 -215l-46 -46v341c-18 -22 -60 -89 -173 -89c-118 0 -214 99 -214 238s96 238 214 238c113 0 155 -67 173 -89v80h46v-673zM421 229c0 117 -60 198 -173 198c-84 0 -164 -65 -164 -198s80 -198 164 -198c113 0 173 81 173 198z" />
    <glyph glyph-name="r" unicode="r" horiz-adv-x="322" 
d="M312 439l-32 -35c-16 12 -41 21 -61 21c-75 0 -117 -61 -117 -132v-293h-46v458h46v-65c19 40 55 74 117 74c25 0 66 -8 93 -28z" />
    <glyph glyph-name="s" unicode="s" horiz-adv-x="340" 
d="M309 109c0 -71 -50 -118 -146 -118c-41 0 -91 13 -131 38v52c45 -28 88 -47 131 -47c54 0 96 19 96 75c0 33 -24 54 -74 87l-82 54c-48 31 -69 66 -69 109c0 82 74 108 136 108c41 0 89 -10 127 -30v-48c-44 24 -85 36 -127 36c-50 0 -89 -13 -89 -66
c0 -22 15 -47 59 -76l79 -52c64 -42 90 -77 90 -122z" />
    <glyph glyph-name="t" unicode="t" horiz-adv-x="302" 
d="M270 418h-103v-418h-46v418h-89v40h89v214l46 46v-260h103v-40z" />
    <glyph glyph-name="u" unicode="u" horiz-adv-x="476" 
d="M420 188c0 -125 -81 -197 -182 -197s-182 72 -182 197v270h46v-270c0 -111 66 -158 136 -158s136 47 136 158v270h46v-270z" />
    <glyph glyph-name="v" unicode="v" horiz-adv-x="454" 
d="M431 458l-204 -467l-204 467h51l153 -364l153 364h51z" />
    <glyph glyph-name="w" unicode="w" horiz-adv-x="668" 
d="M641 458l-165 -468l-142 359l-142 -359l-165 468h54l114 -351l139 361l139 -361l114 351h54z" />
    <glyph glyph-name="x" unicode="x" horiz-adv-x="411" 
d="M384 0h-53l-127 191l-124 -191h-53l150 231l-150 227h53l128 -192l123 192h53l-150 -232z" />
    <glyph glyph-name="y" unicode="y" horiz-adv-x="450" 
d="M428 458l-293 -699h-48l111 264l-176 435h53l146 -378l159 378h48z" />
    <glyph glyph-name="z" unicode="z" horiz-adv-x="404" 
d="M372 40l-26 -40h-311l254 418h-249v40h326l-253 -418h259z" />
    <glyph glyph-name="braceleft" unicode="{" horiz-adv-x="236" 
d="M234 -261h-60c-76 0 -118 8 -118 101v275c0 30 -6 51 -38 77v33c32 26 38 47 38 77v275c0 93 42 103 118 103h60v-33h-59c-64 0 -69 -11 -69 -70v-275c0 -30 -18 -74 -65 -94c46 -20 65 -63 65 -93v-275c0 -59 5 -68 69 -68h59v-33z" />
    <glyph glyph-name="bar" unicode="|" horiz-adv-x="162" 
d="M106 -262h-50v941h50v-941z" />
    <glyph glyph-name="braceright" unicode="}" horiz-adv-x="236" 
d="M218 192c-32 -26 -38 -47 -38 -77v-275c0 -93 -42 -101 -118 -101h-60v33h59c64 0 69 9 69 68v275c0 30 19 73 65 93c-47 20 -65 64 -65 94v275c0 59 -5 70 -69 70h-59v33h60c76 0 118 -10 118 -103v-275c0 -30 6 -51 38 -77v-33z" />
    <glyph glyph-name="asciitilde" unicode="~" horiz-adv-x="492" 
d="M435 491l-61 -129c-17 -35 -35 -46 -61 -46c-24 0 -51 10 -71 45l-39 67c-8 13 -18 14 -24 14c-7 0 -13 -3 -19 -13l-63 -110h-40l61 129c17 35 38 46 64 46c27 0 47 -10 68 -45l40 -67c6 -10 17 -15 24 -15c10 0 13 5 18 14l63 110h40z" />
    <glyph glyph-name="uni007F" horiz-adv-x="206" 
 />
    <glyph glyph-name="uni0080" horiz-adv-x="552" 
d="M530 0h-55l-70 183h-258l-70 -183h-55l254 640zM389 226l-113 297l-113 -297h226zM405 735c0 -22 -17 -39 -39 -39s-39 17 -39 39s17 39 39 39s39 -17 39 -39zM225 735c0 -22 -17 -39 -39 -39s-39 17 -39 39s17 39 39 39s39 -17 39 -39z" />
    <glyph glyph-name="uni0081" horiz-adv-x="552" 
d="M530 0h-55l-70 183h-258l-70 -183h-55l254 640zM389 226l-113 297l-113 -297h226zM364 744c0 -48 -40 -88 -88 -88s-88 40 -88 88s40 87 88 87s88 -39 88 -87zM335 744c0 32 -27 59 -59 59s-59 -27 -59 -59s27 -59 59 -59s59 27 59 59z" />
    <glyph glyph-name="uni0082" horiz-adv-x="535" 
d="M512 70c-51 -49 -121 -79 -195 -79c-163 0 -283 143 -283 324s120 324 283 324c74 0 144 -30 195 -79l-30 -32c-46 41 -100 69 -165 69c-145 0 -231 -134 -231 -282s86 -282 231 -282c65 0 119 28 165 69zM404 -109c0 -37 -33 -73 -98 -73c-35 0 -77 9 -101 22l18 28
c18 -9 55 -18 83 -18c38 0 56 21 56 41c0 21 -18 42 -56 42h-66l41 69h39l-22 -37h8c65 0 98 -37 98 -74z" />
    <glyph glyph-name="uni0083" horiz-adv-x="406" 
d="M372 0h-316v630h300l-28 -42h-222v-225h231v-42h-231v-279h266v-42zM313 809l-140 -143h-41l109 143h72z" />
    <glyph glyph-name="uni0084" horiz-adv-x="562" 
d="M506 -15l-400 514v-499h-50v639l400 -514v505h50v-645zM444 810l-51 -108c-14 -29 -30 -38 -51 -38c-20 0 -42 8 -59 37l-32 56c-6 11 -15 12 -20 12c-6 0 -11 -3 -16 -11l-53 -92h-33l51 108c14 29 31 38 53 38c23 0 40 -8 57 -37l33 -56c5 -9 14 -13 20 -13
c8 0 11 5 15 12l53 92h33z" />
    <glyph glyph-name="uni0085" unicode="&#x85;" horiz-adv-x="642" 
d="M608 315c0 -188 -123 -324 -287 -324s-287 136 -287 324s123 324 287 324s287 -136 287 -324zM556 315c0 160 -90 282 -235 282s-235 -122 -235 -282s90 -282 235 -282s235 122 235 282zM453 735c0 -22 -17 -39 -39 -39s-39 17 -39 39s17 39 39 39s39 -17 39 -39z
M273 735c0 -22 -17 -39 -39 -39s-39 17 -39 39s17 39 39 39s39 -17 39 -39z" />
    <glyph glyph-name="uni0086" horiz-adv-x="598" 
d="M542 278c0 -162 -92 -287 -243 -287s-243 125 -243 287v352h50v-352c0 -142 67 -245 193 -245s193 103 193 245v352h50v-352zM423 735c0 -22 -17 -39 -39 -39s-39 17 -39 39s17 39 39 39s39 -17 39 -39zM243 735c0 -22 -17 -39 -39 -39s-39 17 -39 39s17 39 39 39
s39 -17 39 -39z" />
    <glyph glyph-name="uni0087" horiz-adv-x="523" 
d="M467 0h-46v80c-18 -22 -60 -89 -173 -89c-118 0 -214 99 -214 238s96 238 214 238c113 0 155 -67 173 -89v80h46v-458zM421 229c0 117 -60 198 -173 198c-84 0 -164 -65 -164 -198s80 -198 164 -198c113 0 173 81 173 198zM371 662l-140 -143h-41l109 143h72z" />
    <glyph glyph-name="uni0088" horiz-adv-x="523" 
d="M467 0h-46v80c-18 -22 -60 -89 -173 -89c-118 0 -214 99 -214 238s96 238 214 238c113 0 155 -67 173 -89v80h46v-458zM421 229c0 117 -60 198 -173 198c-84 0 -164 -65 -164 -198s80 -198 164 -198c113 0 173 81 173 198zM338 519h-41l-140 143h72z" />
    <glyph glyph-name="uni0089" horiz-adv-x="523" 
d="M467 0h-46v80c-18 -22 -60 -89 -173 -89c-118 0 -214 99 -214 238s96 238 214 238c113 0 155 -67 173 -89v80h46v-458zM421 229c0 117 -60 198 -173 198c-84 0 -164 -65 -164 -198s80 -198 164 -198c113 0 173 81 173 198zM388 519h-41l-94 111l-94 -111h-41l99 143h72z
" />
    <glyph glyph-name="uni008A" horiz-adv-x="523" 
d="M467 0h-46v80c-18 -22 -60 -89 -173 -89c-118 0 -214 99 -214 238s96 238 214 238c113 0 155 -67 173 -89v80h46v-458zM421 229c0 117 -60 198 -173 198c-84 0 -164 -65 -164 -198s80 -198 164 -198c113 0 173 81 173 198zM386 598c0 -22 -17 -39 -39 -39s-39 17 -39 39
s17 39 39 39s39 -17 39 -39zM206 598c0 -22 -17 -39 -39 -39s-39 17 -39 39s17 39 39 39s39 -17 39 -39z" />
    <glyph glyph-name="uni008B" horiz-adv-x="523" 
d="M467 0h-46v80c-18 -22 -60 -89 -173 -89c-118 0 -214 99 -214 238s96 238 214 238c113 0 155 -67 173 -89v80h46v-458zM421 229c0 117 -60 198 -173 198c-84 0 -164 -65 -164 -198s80 -198 164 -198c113 0 173 81 173 198zM419 663l-51 -108c-14 -29 -29 -38 -51 -38
c-19 0 -42 8 -59 37l-32 56c-6 11 -14 12 -20 12c-5 0 -11 -3 -16 -11l-53 -92h-33l51 108c14 29 32 38 53 38c23 0 40 -8 57 -37l33 -56c5 -9 15 -13 20 -13c8 0 11 5 15 12l53 92h33z" />
    <glyph glyph-name="uni008C" horiz-adv-x="523" 
d="M467 0h-46v80c-18 -22 -60 -89 -173 -89c-118 0 -214 99 -214 238s96 238 214 238c113 0 155 -67 173 -89v80h46v-458zM421 229c0 117 -60 198 -173 198c-84 0 -164 -65 -164 -198s80 -198 164 -198c113 0 173 81 173 198zM343 593c0 -48 -40 -88 -88 -88s-88 40 -88 88
s40 87 88 87s88 -39 88 -87zM314 593c0 32 -27 59 -59 59s-59 -27 -59 -59s27 -59 59 -59s59 27 59 59z" />
    <glyph glyph-name="uni008D" horiz-adv-x="448" 
d="M416 47c-43 -34 -97 -56 -164 -56c-124 0 -218 98 -218 238s94 238 218 238c67 0 121 -22 164 -56l-30 -33c-32 25 -78 46 -134 46c-87 0 -169 -77 -169 -195s82 -195 169 -195c56 0 102 21 134 46zM347 -109c0 -37 -32 -73 -98 -73c-34 0 -76 9 -101 22l18 28
c18 -9 55 -18 83 -18c39 0 56 21 56 41c0 21 -18 42 -56 42h-66l41 69h39l-22 -37h8c65 0 98 -37 98 -74z" />
    <glyph glyph-name="uni008E" horiz-adv-x="472" 
d="M440 223h-357c6 -118 84 -189 169 -189c56 0 102 20 134 45l30 -33c-43 -34 -97 -55 -164 -55c-112 0 -218 83 -218 247c0 138 88 229 210 229c107 0 196 -81 196 -244zM386 264c-7 102 -71 160 -142 160c-76 0 -151 -51 -160 -160h302zM376 662l-140 -143h-41l109 143
h72z" />
    <glyph glyph-name="uni008F" horiz-adv-x="472" 
d="M440 223h-357c6 -118 84 -189 169 -189c56 0 102 20 134 45l30 -33c-43 -34 -97 -55 -164 -55c-112 0 -218 83 -218 247c0 138 88 229 210 229c107 0 196 -81 196 -244zM386 264c-7 102 -71 160 -142 160c-76 0 -151 -51 -160 -160h302zM325 519h-41l-140 143h72z" />
    <glyph glyph-name="uni0090" horiz-adv-x="472" 
d="M440 223h-357c6 -118 84 -189 169 -189c56 0 102 20 134 45l30 -33c-43 -34 -97 -55 -164 -55c-112 0 -218 83 -218 247c0 138 88 229 210 229c107 0 196 -81 196 -244zM386 264c-7 102 -71 160 -142 160c-76 0 -151 -51 -160 -160h302zM391 519h-41l-94 111l-94 -111
h-41l99 143h72z" />
    <glyph glyph-name="uni0091" horiz-adv-x="472" 
d="M440 223h-357c6 -118 84 -189 169 -189c56 0 102 20 134 45l30 -33c-43 -34 -97 -55 -164 -55c-112 0 -218 83 -218 247c0 138 88 229 210 229c107 0 196 -81 196 -244zM386 264c-7 102 -71 160 -142 160c-76 0 -151 -51 -160 -160h302zM381 598c0 -22 -17 -39 -39 -39
s-39 17 -39 39s17 39 39 39s39 -17 39 -39zM201 598c0 -22 -17 -39 -39 -39s-39 17 -39 39s17 39 39 39s39 -17 39 -39z" />
    <glyph glyph-name="uni0092" horiz-adv-x="158" 
d="M102 0h-46v458h46v-458zM185 662l-140 -143h-41l109 143h72z" />
    <glyph glyph-name="uni0093" horiz-adv-x="158" 
d="M103 0h-46v458h46v-458zM156 519h-41l-140 143h72z" />
    <glyph glyph-name="uni0094" horiz-adv-x="158" 
d="M103 0h-46v458h46v-458zM215 519h-41l-94 111l-94 -111h-41l99 143h72z" />
    <glyph glyph-name="uni0095" horiz-adv-x="158" 
d="M103 0h-46v458h46v-458zM209 598c0 -22 -17 -39 -39 -39s-39 17 -39 39s17 39 39 39s39 -17 39 -39zM29 598c0 -22 -17 -39 -39 -39s-39 17 -39 39s17 39 39 39s39 -17 39 -39z" />
    <glyph glyph-name="uni0096" horiz-adv-x="478" 
d="M422 0h-46v280c0 115 -60 147 -132 147c-81 0 -142 -56 -142 -144v-283h-46v458h46v-70c30 51 81 79 142 79c117 0 178 -65 178 -187v-280zM410 663l-51 -108c-14 -29 -30 -38 -51 -38c-20 0 -43 8 -59 37l-32 56c-6 11 -15 12 -20 12c-6 0 -11 -3 -16 -11l-53 -92h-33
l51 108c14 29 31 38 53 38s40 -8 57 -37l33 -56c5 -9 14 -13 20 -13c8 0 11 5 15 12l53 92h33z" />
    <glyph glyph-name="uni0097" horiz-adv-x="534" 
d="M500 229c0 -132 -100 -238 -233 -238s-233 106 -233 238s100 238 233 238s233 -106 233 -238zM451 229c0 104 -77 196 -184 196s-184 -92 -184 -196s77 -196 184 -196s184 92 184 196zM365 662l-140 -143h-41l109 143h72z" />
    <glyph glyph-name="uni0098" horiz-adv-x="534" 
d="M500 229c0 -132 -100 -238 -233 -238s-233 106 -233 238s100 238 233 238s233 -106 233 -238zM451 229c0 104 -77 196 -184 196s-184 -92 -184 -196s77 -196 184 -196s184 92 184 196zM346 519h-41l-140 143h72z" />
    <glyph glyph-name="uni0099" horiz-adv-x="534" 
d="M500 229c0 -132 -100 -238 -233 -238s-233 106 -233 238s100 238 233 238s233 -106 233 -238zM451 229c0 104 -77 196 -184 196s-184 -92 -184 -196s77 -196 184 -196s184 92 184 196zM402 519h-41l-94 111l-94 -111h-41l99 143h72z" />
    <glyph glyph-name="uni009A" horiz-adv-x="534" 
d="M500 229c0 -132 -100 -238 -233 -238s-233 106 -233 238s100 238 233 238s233 -106 233 -238zM451 229c0 104 -77 196 -184 196s-184 -92 -184 -196s77 -196 184 -196s184 92 184 196zM394 598c0 -22 -17 -39 -39 -39s-39 17 -39 39s17 39 39 39s39 -17 39 -39zM214 598
c0 -22 -17 -39 -39 -39s-39 17 -39 39s17 39 39 39s39 -17 39 -39z" />
    <glyph glyph-name="uni009B" horiz-adv-x="534" 
d="M500 229c0 -132 -100 -238 -233 -238s-233 106 -233 238s100 238 233 238s233 -106 233 -238zM451 229c0 104 -77 196 -184 196s-184 -92 -184 -196s77 -196 184 -196s184 92 184 196zM426 663l-51 -108c-14 -29 -30 -38 -51 -38c-20 0 -42 8 -59 37l-32 56
c-6 11 -15 12 -20 12c-6 0 -11 -3 -16 -11l-53 -92h-33l51 108c14 29 31 38 53 38c23 0 40 -8 57 -37l33 -56c5 -9 14 -13 20 -13c8 0 11 5 15 12l53 92h33z" />
    <glyph glyph-name="uni009C" horiz-adv-x="476" 
d="M420 188c0 -125 -81 -197 -182 -197s-182 72 -182 197v270h46v-270c0 -111 66 -158 136 -158s136 47 136 158v270h46v-270zM343 662l-140 -143h-41l109 143h72z" />
    <glyph glyph-name="uni009D" horiz-adv-x="476" 
d="M420 188c0 -125 -81 -197 -182 -197s-182 72 -182 197v270h46v-270c0 -111 66 -158 136 -158s136 47 136 158v270h46v-270zM315 519h-41l-140 143h72z" />
    <glyph glyph-name="uni009E" horiz-adv-x="476" 
d="M420 188c0 -125 -81 -197 -182 -197s-182 72 -182 197v270h46v-270c0 -111 66 -158 136 -158s136 47 136 158v270h46v-270zM373 519h-41l-94 111l-94 -111h-41l99 143h72z" />
    <glyph glyph-name="uni009F" horiz-adv-x="476" 
d="M420 188c0 -125 -81 -197 -182 -197s-182 72 -182 197v270h46v-270c0 -111 66 -158 136 -158s136 47 136 158v270h46v-270zM367 598c0 -22 -17 -39 -39 -39s-39 17 -39 39s17 39 39 39s39 -17 39 -39zM187 598c0 -22 -17 -39 -39 -39s-39 17 -39 39s17 39 39 39
s39 -17 39 -39z" />
    <glyph glyph-name="uni00A0" unicode="&#xa0;" horiz-adv-x="302" 
d="M270 418h-96v-427l-46 70v357h-96v40h96v172h46v-172h96v-40z" />
    <glyph glyph-name="exclamdown" unicode="&#xa1;" horiz-adv-x="235" 
d="M206 552c0 -48 -40 -88 -88 -88s-88 40 -88 88s40 87 88 87s88 -39 88 -87zM177 552c0 32 -27 59 -59 59s-59 -27 -59 -59s27 -59 59 -59s59 27 59 59z" />
    <glyph glyph-name="cent" unicode="&#xa2;" horiz-adv-x="434" 
d="M416 47c-39 -31 -87 -52 -146 -55v-69h-39v69c-113 11 -197 105 -197 237s84 226 197 237v67h39v-67c59 -3 107 -24 146 -55l-30 -33c-32 25 -78 45 -134 45c-87 0 -169 -76 -169 -194s82 -194 169 -194c56 0 102 20 134 45z" />
    <glyph glyph-name="sterling" unicode="&#xa3;" horiz-adv-x="439" 
d="M399 0h-359c26 30 35 69 35 136v158h-60l27 39h33v142c0 114 59 164 159 164c70 0 123 -27 161 -70l-29 -29c-33 33 -72 59 -132 59c-77 0 -114 -37 -114 -124v-142h209l-27 -39h-182v-158c0 -50 -7 -79 -17 -97h296v-39z" />
    <glyph glyph-name="Euro" unicode="&#x20ac;" horiz-adv-x="442" 
d="M408 -97c0 -87 -61 -155 -190 -155c-78 0 -138 33 -178 56v53c55 -36 116 -68 178 -68c67 0 133 18 133 115c0 49 -21 76 -90 126l-132 96c-61 45 -92 89 -92 144c0 40 12 79 49 112c-35 37 -48 68 -48 111c0 83 52 146 175 146c74 0 126 -28 169 -53v-52
c-44 29 -110 64 -169 64c-64 0 -126 -23 -126 -105c0 -48 31 -77 84 -115l123 -89c83 -60 114 -108 114 -176c0 -32 -11 -71 -45 -102c32 -35 45 -70 45 -108zM356 103c0 54 -18 91 -95 146l-128 92c-7 5 -13 12 -22 19c-20 -30 -26 -57 -26 -77c0 -45 25 -78 86 -123
l123 -91c13 -10 25 -19 43 -34c13 24 19 48 19 68z" />
    <glyph glyph-name="yen" unicode="&#xa5;" horiz-adv-x="353" 
d="M275 303c0 -55 -46 -100 -101 -100s-100 45 -100 100s45 100 100 100s101 -45 101 -100z" />
    <glyph glyph-name="Scaron" unicode="&#x160;" horiz-adv-x="461" 
d="M405 0h-50v585h-50v-585h-50v262h-10c-123 0 -211 61 -211 184s88 184 211 184h160v-630z" />
    <glyph glyph-name="section" unicode="&#xa7;" horiz-adv-x="494" 
d="M460 186c0 -96 -66 -195 -220 -195h-48v40h48c120 0 172 69 172 155c0 80 -51 151 -161 151h-59v37h59c93 0 123 58 123 138c0 59 -30 127 -136 127c-92 0 -136 -55 -136 -146v-493h-46v493c0 125 90 184 182 184c133 0 182 -91 182 -165c0 -80 -37 -134 -95 -154
c87 -20 135 -92 135 -172z" />
    <glyph glyph-name="scaron" unicode="&#x161;" horiz-adv-x="722" 
d="M685 315c0 -179 -145 -324 -324 -324s-324 145 -324 324s145 324 324 324s324 -145 324 -324zM643 315c0 156 -126 282 -282 282s-282 -126 -282 -282s126 -282 282 -282s282 126 282 282zM510 94h-53l-142 176h-47v-176h-41v441h125c85 0 147 -45 147 -132
c0 -82 -55 -127 -132 -132zM458 403c0 75 -52 96 -106 96h-84v-193h84c54 0 106 22 106 97z" />
    <glyph glyph-name="copyright" unicode="&#xa9;" horiz-adv-x="722" 
d="M685 315c0 -179 -145 -324 -324 -324s-324 145 -324 324s145 324 324 324s324 -145 324 -324zM643 315c0 156 -126 282 -282 282s-282 -126 -282 -282s126 -282 282 -282s282 126 282 282zM500 146c-38 -37 -87 -58 -139 -58c-114 0 -197 101 -197 227s83 226 197 226
c52 0 101 -21 139 -58l-26 -27c-34 30 -70 48 -113 48c-96 0 -153 -88 -153 -189s57 -190 153 -190c43 0 79 19 113 49z" />
    <glyph glyph-name="ordfeminine" unicode="&#xaa;" horiz-adv-x="609" 
d="M577 308h-41l-13 204l-102 -148l-102 148l-13 -204h-41l20 328l136 -201l135 201zM262 595h-95v-287h-40v287h-95v35h230v-35z" />
    <glyph glyph-name="guillemotleft" unicode="&#xab;" horiz-adv-x="404" 
d="M313 662l-140 -143h-41l109 143h72z" />
    <glyph glyph-name="logicalnot" unicode="&#xac;" horiz-adv-x="404" 
d="M331 598c0 -22 -17 -39 -39 -39s-39 17 -39 39s17 39 39 39s39 -17 39 -39zM151 598c0 -22 -17 -39 -39 -39s-39 17 -39 39s17 39 39 39s39 -17 39 -39z" />
    <glyph glyph-name="uni00AD" unicode="&#xad;" horiz-adv-x="511" 
d="M463 224h-225l-107 -224h-45l107 224h-146v42h167l61 128h-228v42h248l93 194h44l-93 -194h124v-42h-144l-61 -128h205v-42z" />
    <glyph glyph-name="registered" unicode="&#xae;" horiz-adv-x="701" 
d="M667 0h-316v183h-189l-97 -183h-52l334 630h304l-28 -42h-222v-225h231v-42h-231v-279h266v-42zM351 226v313l-166 -313h166z" />
    <glyph glyph-name="macron" unicode="&#xaf;" horiz-adv-x="642" 
d="M618 629l-81 -94c45 -56 71 -133 71 -220c0 -188 -123 -324 -287 -324c-73 0 -138 27 -188 74l-56 -66h-52l81 95c-45 57 -72 133 -72 221c0 188 123 324 287 324c74 0 139 -28 189 -75l56 65h52zM481 530c-40 42 -94 67 -160 67c-145 0 -235 -122 -235 -282
c0 -72 18 -136 51 -185zM556 315c0 71 -18 134 -50 183l-343 -399c40 -41 93 -66 158 -66c145 0 235 122 235 282z" />
    <glyph glyph-name="degree" unicode="&#xb0;" 
 />
    <glyph glyph-name="plusminus" unicode="&#xb1;" horiz-adv-x="510" 
d="M478 294h-202v-202h-42v202h-202v42h202v202h42v-202h202v-42zM478 0h-446v42h446v-42z" />
    <glyph glyph-name="uni00B2" unicode="&#xb2;" 
 />
    <glyph glyph-name="uni00B3" unicode="&#xb3;" 
 />
    <glyph glyph-name="Zcaron" unicode="&#x17d;" horiz-adv-x="509" 
d="M487 630l-117 -226h103v-39h-123l-52 -101h175v-39h-194v-225h-49v225h-193v39h174l-52 101h-122v39h102l-117 226h52l180 -365l181 365h52z" />
    <glyph glyph-name="uni00B5" unicode="&#xb5;" horiz-adv-x="476" 
d="M420 188c0 -125 -81 -197 -182 -197c-54 0 -103 20 -136 59v-265l-46 -46v719h46v-270c0 -111 66 -158 136 -158s136 47 136 158v270h46v-270z" />
    <glyph glyph-name="paragraph" unicode="&#xb6;" horiz-adv-x="380" 
d="M346 0h-290v589l50 50v-597h240v-42z" />
    <glyph glyph-name="periodcentered" unicode="&#xb7;" 
 />
    <glyph glyph-name="zcaron" unicode="&#x17e;" horiz-adv-x="488" 
d="M479 630l-28 -42h-182v-588h-50v588h-192v42h452z" />
    <glyph glyph-name="uni00B9" unicode="&#xb9;" 
 />
    <glyph glyph-name="ordmasculine" unicode="&#xba;" 
 />
    <glyph glyph-name="guillemotright" unicode="&#xbb;" horiz-adv-x="291" 
d="M254 401h-36v33c-16 -25 -50 -38 -74 -38c-56 0 -107 49 -107 119c0 69 47 119 107 119c28 0 57 -11 74 -35v31h36v-229zM218 515c0 52 -26 86 -74 86c-35 0 -70 -27 -70 -86c0 -57 35 -86 70 -86c48 0 74 34 74 86z" />
    <glyph glyph-name="OE" unicode="&#x152;" horiz-adv-x="307" 
d="M270 520c0 -66 -50 -119 -117 -119s-116 53 -116 119s49 119 116 119s117 -53 117 -119zM233 520c0 46 -34 85 -80 85s-79 -39 -79 -85s33 -85 79 -85s80 39 80 85z" />
    <glyph glyph-name="oe" unicode="&#x153;" 
 />
    <glyph glyph-name="Ydieresis" unicode="&#x178;" horiz-adv-x="855" 
d="M823 222h-356c6 -118 83 -187 168 -187c56 0 102 19 134 44l30 -33c-43 -34 -97 -55 -164 -55c-66 0 -127 33 -168 91v-82h-46v84c-15 -22 -55 -93 -173 -93c-111 0 -214 97 -214 238c0 139 96 238 214 238c113 0 155 -65 173 -89v80h46v-71c39 53 92 80 160 80
c107 0 196 -82 196 -245zM769 265c-6 100 -71 158 -142 158c-76 0 -150 -49 -159 -158h301zM421 229c0 117 -60 198 -173 198c-84 0 -164 -65 -164 -198c0 -127 80 -198 164 -198c113 0 173 81 173 198z" />
    <glyph glyph-name="questiondown" unicode="&#xbf;" horiz-adv-x="534" 
d="M500 229c0 -132 -100 -238 -233 -238c-55 0 -104 18 -143 48l-35 -39h-54l60 67c-38 42 -61 99 -61 162c0 132 100 238 233 238c55 0 104 -18 143 -48l35 39h54l-60 -67c38 -42 61 -99 61 -162zM451 229c0 47 -16 92 -43 127l-253 -283c30 -25 69 -40 112 -40
c107 0 184 92 184 196zM379 385c-30 25 -69 40 -112 40c-107 0 -184 -92 -184 -196c0 -47 16 -92 43 -127z" />
    <glyph glyph-name="Agrave" unicode="&#xc0;" horiz-adv-x="396" 
d="M265 433c0 -19 -14 -33 -33 -33s-34 14 -34 33s15 34 34 34s33 -15 33 -34zM374 -209c-47 -32 -108 -51 -165 -51c-92 0 -175 49 -175 168c0 82 28 141 113 211c57 47 63 83 63 166v45h45v-45c0 -95 -14 -143 -78 -198c-76 -64 -96 -100 -96 -179c0 -92 59 -128 129 -128
c50 0 107 18 145 46z" />
    <glyph glyph-name="Aacute" unicode="&#xc1;" horiz-adv-x="174" 
d="M121 433c0 -19 -14 -33 -33 -33s-34 14 -34 33s15 34 34 34s33 -15 33 -34zM115 -250h-55l9 580h37z" />
    <glyph glyph-name="Acircumflex" unicode="&#xc2;" horiz-adv-x="511" 
d="M463 224h-42v170h-374v42h416v-212z" />
    <glyph glyph-name="Atilde" unicode="&#xc3;" 
 />
    <glyph glyph-name="Adieresis" unicode="&#xc4;" horiz-adv-x="349" 
d="M337 619l-30 -31c-12 7 -27 13 -45 13c-65 0 -87 -39 -101 -111l-27 -136h137l-8 -42h-137l-56 -289c-20 -101 -66 -149 -148 -149c-26 0 -54 6 -75 20l30 31c12 -7 26 -13 44 -13c65 0 87 40 101 112l56 288h-99l8 42h99l27 137c20 101 66 148 148 148
c26 0 55 -6 76 -20z" />
    <glyph glyph-name="Aring" unicode="&#xc5;" 
 />
    <glyph glyph-name="AE" unicode="&#xc6;" horiz-adv-x="174" 
d="M112 -24c0 -136 -34 -193 -151 -200v42c89 8 101 51 101 158v613l50 50v-663z" />
    <glyph glyph-name="Ccedilla" unicode="&#xc7;" horiz-adv-x="459" 
d="M422 78h-55l-160 170l160 170h55l-160 -170zM242 78h-55l-160 170l160 170h55l-160 -170z" />
    <glyph glyph-name="Egrave" unicode="&#xc8;" horiz-adv-x="459" 
d="M432 248l-160 -170h-55l160 170l-160 170h55zM252 248l-160 -170h-55l160 170l-160 170h55z" />
    <glyph glyph-name="Eacute" unicode="&#xc9;" horiz-adv-x="507" 
d="M447 25c0 -19 -15 -34 -34 -34s-33 15 -33 34s14 33 33 33s34 -14 34 -33zM287 25c0 -19 -15 -34 -34 -34s-33 15 -33 34s14 33 33 33s34 -14 34 -33zM127 25c0 -19 -15 -34 -34 -34s-33 15 -33 34s14 33 33 33s34 -14 34 -33z" />
    <glyph glyph-name="Ecircumflex" unicode="&#xca;" horiz-adv-x="206" 
 />
    <glyph glyph-name="Edieresis" unicode="&#xcb;" horiz-adv-x="552" 
d="M530 0h-55l-70 183h-258l-70 -183h-55l254 640zM389 226l-113 297l-113 -297h226zM367 666h-41l-140 143h72z" />
    <glyph glyph-name="Igrave" unicode="&#xcc;" horiz-adv-x="552" 
d="M530 0h-55l-70 183h-258l-70 -183h-55l254 640zM389 226l-113 297l-113 -297h226zM438 810l-51 -108c-14 -29 -29 -38 -51 -38c-19 0 -42 8 -59 37l-32 56c-6 11 -14 12 -20 12c-5 0 -11 -2 -16 -11l-53 -92h-33l51 108c14 29 32 38 53 38c23 0 40 -8 57 -37l33 -56
c5 -8 15 -13 20 -13c8 0 11 5 15 12l53 92h33z" />
    <glyph glyph-name="Iacute" unicode="&#xcd;" horiz-adv-x="642" 
d="M608 315c0 -188 -123 -324 -287 -324s-287 136 -287 324s123 324 287 324s287 -136 287 -324zM556 315c0 160 -90 282 -235 282s-235 -122 -235 -282s90 -282 235 -282s235 122 235 282zM489 810l-51 -108c-14 -30 -29 -38 -51 -38c-19 0 -42 7 -59 37l-32 56
c-6 11 -14 12 -20 12c-5 0 -11 -3 -16 -11l-53 -92h-33l51 108c14 29 32 38 53 38c23 0 40 -8 57 -37l33 -56c5 -9 15 -13 20 -13c8 0 11 5 15 12l53 92h33z" />
    <glyph glyph-name="Icircumflex" unicode="&#xce;" horiz-adv-x="908" 
d="M874 0h-316v127c-51 -84 -136 -136 -237 -136c-164 0 -287 136 -287 324s123 324 287 324c101 0 186 -52 237 -136v127h300l-28 -42h-222v-225h231v-42h-231v-279h266v-42zM556 315c0 160 -90 282 -235 282s-235 -122 -235 -282s90 -282 235 -282s235 122 235 282z" />
    <glyph glyph-name="Idieresis" unicode="&#xcf;" horiz-adv-x="889" 
d="M857 222h-356c6 -118 83 -187 168 -187c56 0 102 19 134 44l30 -33c-43 -34 -97 -55 -164 -55c-80 0 -158 42 -195 127c-38 -76 -114 -127 -207 -127c-133 0 -233 106 -233 238s100 238 233 238c91 0 166 -49 205 -122c33 76 102 122 189 122c107 0 196 -82 196 -245z
M803 265c-6 100 -71 158 -142 158c-76 0 -150 -49 -159 -158h301zM451 229c0 104 -77 196 -184 196s-184 -92 -184 -196s77 -196 184 -196s184 92 184 196z" />
    <glyph glyph-name="Eth" unicode="&#xd0;" horiz-adv-x="369" 
d="M327 230h-285v42h285v-42z" />
    <glyph glyph-name="Ntilde" unicode="&#xd1;" horiz-adv-x="584" 
d="M542 231h-500v41h500v-41z" />
    <glyph glyph-name="Ograve" unicode="&#xd2;" horiz-adv-x="274" 
d="M234 718c-37 -49 -41 -89 -41 -104c19 0 34 -15 34 -34s-14 -34 -33 -34s-33 14 -33 34c0 52 18 97 51 138h22zM113 718c-37 -49 -41 -89 -41 -104c19 0 34 -15 34 -34s-14 -34 -33 -34s-33 14 -33 34c0 52 18 97 51 138h22z" />
    <glyph glyph-name="Oacute" unicode="&#xd3;" horiz-adv-x="274" 
d="M234 688c0 -52 -18 -97 -51 -138h-22c37 49 41 89 41 104c-19 0 -34 15 -34 34s14 34 33 34s33 -14 33 -34zM113 688c0 -52 -18 -97 -51 -138h-22c37 49 41 89 41 104c-19 0 -34 15 -34 34s14 34 33 34s33 -14 33 -34z" />
    <glyph glyph-name="Ocircumflex" unicode="&#xd4;" horiz-adv-x="194" 
d="M129 718c-37 -49 -41 -89 -41 -104c19 0 34 -15 34 -34s-16 -34 -33 -34c-26 0 -36 21 -36 44c0 47 25 92 54 128h22z" />
    <glyph glyph-name="Otilde" unicode="&#xd5;" horiz-adv-x="153" 
d="M116 677c0 -47 -25 -92 -54 -128h-22c37 49 41 89 41 104c-19 0 -34 15 -34 34s16 34 33 34c26 0 36 -21 36 -44z" />
    <glyph glyph-name="Odieresis" unicode="&#xd6;" horiz-adv-x="400" 
d="M234 486c0 -19 -15 -34 -34 -34s-33 15 -33 34s14 33 33 33s34 -14 34 -33zM368 294h-336v42h336v-42zM234 145c0 -19 -15 -34 -34 -34s-33 15 -33 34s14 33 33 33s34 -14 34 -33z" />
    <glyph glyph-name="multiply" unicode="&#xd7;" 
 />
    <glyph glyph-name="Oslash" unicode="&#xd8;" horiz-adv-x="450" 
d="M428 458l-293 -699h-48l111 264l-176 435h53l146 -378l159 378h48zM361 598c0 -22 -17 -39 -39 -39s-39 17 -39 39s17 39 39 39s39 -17 39 -39zM181 598c0 -22 -17 -39 -39 -39s-39 17 -39 39s17 39 39 39s39 -17 39 -39z" />
    <glyph glyph-name="Ugrave" unicode="&#xd9;" horiz-adv-x="509" 
d="M487 630l-208 -403v-227h-49v227l-208 403h52l180 -365l181 365h52zM383 735c0 -22 -17 -39 -39 -39s-39 17 -39 39s17 39 39 39s39 -17 39 -39zM203 735c0 -22 -17 -39 -39 -39s-39 17 -39 39s17 39 39 39s39 -17 39 -39z" />
    <glyph glyph-name="Uacute" unicode="&#xda;" horiz-adv-x="213" 
d="M331 630l-408 -639h-41l408 639h41z" />
    <glyph glyph-name="Ucircumflex" unicode="&#xdb;" horiz-adv-x="520" 
d="M488 65c-48 -54 -105 -74 -169 -74c-123 0 -217 101 -239 253h-53l20 39h29c-1 10 -1 21 -1 32c0 13 0 26 1 39h-49l20 39h34c24 148 117 246 238 246c64 0 121 -20 169 -74l-26 -32c-44 46 -87 64 -143 64c-95 0 -166 -79 -187 -204h273l-20 -39h-258
c-1 -13 -1 -26 -1 -39c0 -11 -1 -22 0 -32h229l-20 -39h-204c19 -130 91 -211 188 -211c56 0 99 18 143 64z" />
    <glyph glyph-name="Udieresis" unicode="&#xdc;" horiz-adv-x="274" 
d="M242 78h-55l-160 170l160 170h55l-160 -170z" />
    <glyph glyph-name="Yacute" unicode="&#xdd;" horiz-adv-x="274" 
d="M247 248l-160 -170h-55l160 170l-160 170h55z" />
    <glyph glyph-name="Thorn" unicode="&#xde;" horiz-adv-x="417" 
d="M361 645c0 -18 -15 -33 -33 -33s-33 15 -33 33s15 33 33 33s33 -15 33 -33zM351 0h-46v418h-177v-418h-46v418h-60v40h60v97c0 101 44 149 126 149c26 0 48 -6 70 -19l-23 -30c-13 7 -29 12 -47 12c-66 0 -80 -40 -80 -112v-97h223v-458z" />
    <glyph glyph-name="germandbls" unicode="&#xdf;" horiz-adv-x="419" 
d="M363 0h-46v655c-13 7 -54 12 -72 12c-66 0 -105 -40 -105 -112v-97h97v-40h-97v-418h-46v418h-60v40h60v97c0 101 69 149 151 149c24 0 64 -5 88 -16l30 30v-718z" />
    <glyph glyph-name="agrave" unicode="&#xe0;" horiz-adv-x="302" 
d="M270 288h-96v-297l-46 70v227h-96v40h96v90h-96v40h96v172h46v-172h96v-40h-96v-90h96v-40z" />
    <glyph glyph-name="aacute" unicode="&#xe1;" horiz-adv-x="186" 
d="M127 295c0 -19 -15 -34 -34 -34s-33 15 -33 34s14 33 33 33s34 -14 34 -33z" />
    <glyph glyph-name="acircumflex" unicode="&#xe2;" horiz-adv-x="182" 
d="M129 14c0 -47 -25 -92 -54 -128h-22c37 49 41 89 41 104c-19 0 -34 15 -34 34s16 34 33 34c26 0 36 -21 36 -44z" />
    <glyph glyph-name="atilde" unicode="&#xe3;" horiz-adv-x="303" 
d="M250 14c0 -47 -25 -92 -54 -128h-22c37 49 41 89 41 104c-19 0 -34 15 -34 34s16 34 33 34c26 0 36 -21 36 -44zM129 14c0 -47 -25 -92 -54 -128h-22c37 49 41 89 41 104c-19 0 -34 15 -34 34s16 34 33 34c26 0 36 -21 36 -44z" />
    <glyph glyph-name="adieresis" unicode="&#xe4;" horiz-adv-x="939" 
d="M905 169c0 -90 -27 -178 -123 -178s-123 88 -123 178s27 178 123 178s123 -88 123 -178zM614 169c0 -90 -27 -178 -123 -178s-123 88 -123 178s27 178 123 178s123 -88 123 -178zM554 630l-428 -639h-41l428 639h41zM280 461c0 -90 -27 -178 -123 -178s-123 88 -123 178
s27 178 123 178s123 -88 123 -178zM865 169c0 78 -19 144 -83 144s-82 -66 -82 -144s18 -144 82 -144s83 66 83 144zM574 169c0 78 -19 144 -83 144s-82 -66 -82 -144s18 -144 82 -144s83 66 83 144zM240 461c0 78 -19 144 -83 144s-82 -66 -82 -144s18 -145 82 -145
s83 67 83 145z" />
    <glyph glyph-name="aring" unicode="&#xe5;" horiz-adv-x="552" 
d="M530 0h-55l-70 183h-258l-70 -183h-55l254 640zM389 226l-113 297l-113 -297h226zM411 666h-41l-94 111l-94 -111h-41l99 143h72z" />
    <glyph glyph-name="ae" unicode="&#xe6;" horiz-adv-x="406" 
d="M372 0h-316v630h300l-28 -42h-222v-225h231v-42h-231v-279h266v-42zM339 666h-41l-94 111l-94 -111h-41l99 143h72z" />
    <glyph glyph-name="ccedilla" unicode="&#xe7;" horiz-adv-x="552" 
d="M530 0h-55l-70 183h-258l-70 -183h-55l254 640zM389 226l-113 297l-113 -297h226zM369 810l-140 -143h-41l109 143h72z" />
    <glyph glyph-name="egrave" unicode="&#xe8;" horiz-adv-x="406" 
d="M372 0h-316v630h300l-28 -42h-222v-225h231v-42h-231v-279h266v-42zM331 735c0 -22 -17 -39 -39 -39s-39 17 -39 39s17 39 39 39s39 -17 39 -39zM151 735c0 -22 -17 -39 -39 -39s-39 17 -39 39s17 39 39 39s39 -17 39 -39z" />
    <glyph glyph-name="eacute" unicode="&#xe9;" horiz-adv-x="406" 
d="M372 0h-316v630h300l-28 -42h-222v-225h231v-42h-231v-279h266v-42zM273 667h-41l-140 143h72z" />
    <glyph glyph-name="ecircumflex" unicode="&#xea;" horiz-adv-x="174" 
d="M112 0h-50v630h50v-630zM183 809l-140 -143h-41l109 143h72z" />
    <glyph glyph-name="edieresis" unicode="&#xeb;" horiz-adv-x="174" 
d="M112 0h-50v630h50v-630zM222 666h-41l-94 111l-94 -111h-41l99 143h72z" />
    <glyph glyph-name="igrave" unicode="&#xec;" horiz-adv-x="174" 
d="M112 0h-50v630h50v-630zM215 735c0 -22 -17 -39 -39 -39s-39 17 -39 39s17 39 39 39s39 -17 39 -39zM35 735c0 -22 -17 -39 -39 -39s-39 17 -39 39s17 39 39 39s39 -17 39 -39z" />
    <glyph glyph-name="iacute" unicode="&#xed;" horiz-adv-x="174" 
d="M112 0h-50v630h50v-630zM174 666h-41l-140 143h72z" />
    <glyph glyph-name="icircumflex" unicode="&#xee;" horiz-adv-x="642" 
d="M608 315c0 -188 -123 -324 -287 -324s-287 136 -287 324s123 324 287 324s287 -136 287 -324zM556 315c0 160 -90 282 -235 282s-235 -122 -235 -282s90 -282 235 -282s235 122 235 282zM414 808l-140 -143h-41l109 143h72z" />
    <glyph glyph-name="idieresis" unicode="&#xef;" horiz-adv-x="642" 
d="M608 315c0 -188 -123 -324 -287 -324s-287 136 -287 324s123 324 287 324s287 -136 287 -324zM556 315c0 160 -90 282 -235 282s-235 -122 -235 -282s90 -282 235 -282s235 122 235 282zM457 666h-41l-94 111l-94 -111h-41l99 143h72z" />
    <glyph glyph-name="eth" unicode="&#xf0;" 
 />
    <glyph glyph-name="ntilde" unicode="&#xf1;" horiz-adv-x="642" 
d="M608 315c0 -188 -123 -324 -287 -324s-287 136 -287 324s123 324 287 324s287 -136 287 -324zM556 315c0 160 -90 282 -235 282s-235 -122 -235 -282s90 -282 235 -282s235 122 235 282zM416 666h-41l-140 143h72z" />
    <glyph glyph-name="ograve" unicode="&#xf2;" horiz-adv-x="598" 
d="M542 278c0 -162 -92 -287 -243 -287s-243 125 -243 287v352h50v-352c0 -142 67 -245 193 -245s193 103 193 245v352h50v-352zM390 809l-140 -143h-41l109 143h72z" />
    <glyph glyph-name="oacute" unicode="&#xf3;" horiz-adv-x="598" 
d="M542 278c0 -162 -92 -287 -243 -287s-243 125 -243 287v352h50v-352c0 -142 67 -245 193 -245s193 103 193 245v352h50v-352zM434 666h-41l-94 111l-94 -111h-41l99 143h72z" />
    <glyph glyph-name="ocircumflex" unicode="&#xf4;" horiz-adv-x="598" 
d="M542 278c0 -162 -92 -287 -243 -287s-243 125 -243 287v352h50v-352c0 -142 67 -245 193 -245s193 103 193 245v352h50v-352zM380 665h-41l-140 143h72z" />
    <glyph glyph-name="otilde" unicode="&#xf5;" horiz-adv-x="158" 
d="M102 0h-46v458h46v-458z" />
    <glyph glyph-name="odieresis" unicode="&#xf6;" horiz-adv-x="404" 
d="M337 519h-41l-94 111l-94 -111h-41l99 143h72z" />
    <glyph glyph-name="divide" unicode="&#xf7;" horiz-adv-x="404" 
d="M373 662l-140 -143h-41l109 143h72zM213 662l-140 -143h-41l109 143h72z" />
    <glyph glyph-name="oslash" unicode="&#xf8;" horiz-adv-x="404" 
d="M322 580h-260v36h260v-36z" />
    <glyph glyph-name="ugrave" unicode="&#xf9;" horiz-adv-x="404" 
d="M337 662l-61 -88c-29 -42 -42 -58 -74 -58s-45 16 -74 58l-61 88h41l43 -50c25 -29 38 -43 51 -43s26 14 51 43l43 50h41z" />
    <glyph glyph-name="uacute" unicode="&#xfa;" horiz-adv-x="186" 
d="M127 588c0 -19 -15 -34 -34 -34s-33 15 -33 34s14 33 33 33s34 -14 34 -33z" />
    <glyph glyph-name="ucircumflex" unicode="&#xfb;" horiz-adv-x="404" 
d="M290 593c0 -48 -40 -88 -88 -88s-88 40 -88 88s40 87 88 87s88 -39 88 -87zM261 593c0 32 -27 59 -59 59s-59 -27 -59 -59s27 -59 59 -59s59 27 59 59z" />
    <glyph glyph-name="udieresis" unicode="&#xfc;" horiz-adv-x="266" 
d="M221 -109c0 -37 -33 -73 -98 -73c-35 0 -77 9 -101 22l18 28c18 -9 55 -18 83 -18c38 0 56 21 56 41c0 21 -18 42 -56 42h-66l41 69h39l-22 -37h8c65 0 98 -37 98 -74z" />
    <glyph glyph-name="yacute" unicode="&#xfd;" horiz-adv-x="404" 
d="M360 663l-51 -108c-14 -29 -29 -38 -51 -38c-20 0 -42 8 -59 37l-32 56c-6 11 -15 12 -20 12c-6 0 -11 -3 -16 -11l-53 -92h-33l51 108c14 29 31 38 53 38c23 0 40 -8 57 -37l33 -56c5 -9 14 -13 20 -13c8 0 11 5 15 12l53 92h33z" />
    <glyph glyph-name="thorn" unicode="&#xfe;" horiz-adv-x="266" 
d="M234 -161c-23 -13 -61 -22 -97 -22c-51 0 -97 25 -97 79c0 65 59 96 89 110h63c-71 -34 -110 -56 -110 -110c0 -31 27 -47 59 -47c29 0 62 8 78 15z" />
    <glyph glyph-name="ydieresis" unicode="&#xff;" horiz-adv-x="404" 
d="M337 662l-99 -143h-72l-99 143h41l94 -111l94 111h41z" />
    <glyph glyph-name="Euro" unicode="&#x20ac;" horiz-adv-x="520" 
d="M488 65c-48 -54 -105 -74 -169 -74c-123 0 -217 101 -239 253h-53l20 39h29c-1 10 -1 21 -1 32c0 13 0 26 1 39h-49l20 39h34c24 148 117 246 238 246c64 0 121 -20 169 -74l-26 -32c-44 46 -87 64 -143 64c-95 0 -166 -79 -187 -204h273l-20 -39h-258
c-1 -13 -1 -26 -1 -39c0 -11 -1 -22 0 -32h229l-20 -39h-204c19 -130 91 -211 188 -211c56 0 99 18 143 64z" />
    </font>
</defs>
</svg>
